<?xml version="1.0" encoding="UTF-8" standalone="no"?>
<!-- Created with Inkscape (http://www.inkscape.org/) -->

<svg
   width="210mm"
   height="297mm"
   viewBox="0 0 210 297"
   version="1.1"
   id="svg1"
   xmlns="http://www.w3.org/2000/svg"
   xmlns:svg="http://www.w3.org/2000/svg">
  <defs
     id="defs1" />
  <g
     id="layer1">
    <circle
       style="fill:#800000;stroke-width:0.264583"
       id="path1"
       cx="28.916836"
       cy="260.85394"
       r="12.651115" />
    <circle
       style="fill:#800080;stroke-width:0.264583"
       id="path1-3"
       cx="28.719185"
       cy="234.84341"
       r="12.651115" />
    <path
       style="fill:#ff7f2a;stroke-width:0.264583"
       d="m 16.431024,262.0842 c 0.08273,0.0119 0.167168,0.0119 0.249901,0 -0.0024,4e-5 -0.0048,0.001 -0.0064,0.003 -0.0016,0.002 -0.0024,0.004 -0.0022,0.007 2.3e-4,0.002 0.0015,0.005 0.0033,0.006 0.0019,0.002 0.0043,0.002 0.0068,0.002 0.0024,-1.3e-4 0.0048,-0.001 0.0065,-0.003 0.0017,-0.002 0.0028,-0.004 0.0031,-0.006 2.57e-4,-0.002 -3.34e-4,-0.005 -0.0016,-0.007 -0.0013,-0.002 -0.0033,-0.004 -0.0055,-0.005 -0.0023,-9.1e-4 -0.0048,-0.001 -0.0072,-5.7e-4 -0.0024,5.3e-4 -0.0046,0.002 -0.0063,0.003 -0.0017,0.002 -0.0029,0.004 -0.0035,0.006 -5.72e-4,0.002 -5.05e-4,0.005 1.59e-4,0.007 0.0013,0.005 0.0051,0.009 0.0097,0.0103 0.0046,0.002 0.0098,0.001 0.01418,-8.8e-4 0.0044,-0.002 0.0078,-0.006 0.0098,-0.0105 0.0019,-0.004 0.0024,-0.01 0.0016,-0.0143 -8.32e-4,-0.005 -0.0029,-0.009 -0.0058,-0.0133 -0.0029,-0.004 -0.0066,-0.007 -0.0106,-0.01 -0.0081,-0.005 -0.01753,-0.008 -0.02695,-0.0109 -0.0094,-0.002 -0.019,-0.005 -0.02797,-0.008 -0.01697,0.0599 -0.04671,0.11809 -0.09516,0.15715 -0.02422,0.0195 -0.05287,0.0339 -0.08341,0.0398 -0.03054,0.006 -0.06296,0.003 -0.09147,-0.009 -0.02851,-0.0125 -0.05284,-0.0349 -0.06597,-0.0632 -0.01313,-0.0282 -0.01454,-0.062 -0.0023,-0.0906 0.0061,-0.0143 0.01557,-0.0272 0.02748,-0.0372 0.0119,-0.01 0.02627,-0.0171 0.04151,-0.0203 0.01523,-0.003 0.0313,-0.002 0.04607,0.003 0.01477,0.005 0.02818,0.0139 0.03816,0.0258 0.0098,0.0118 0.01605,0.0265 0.01768,0.0417 0.0016,0.0152 -0.0015,0.031 -0.0089,0.0444 -0.0074,0.0134 -0.01923,0.0244 -0.03322,0.0306 -0.01399,0.006 -0.0301,0.008 -0.04493,0.004 -0.01483,-0.004 -0.02828,-0.013 -0.03713,-0.0255 -0.0088,-0.0125 -0.01299,-0.0283 -0.01121,-0.0435 0.0018,-0.0152 0.0095,-0.0297 0.0213,-0.0395 0.01179,-0.01 0.02753,-0.0147 0.04278,-0.0132 0.01525,0.002 0.02978,0.01 0.03906,0.0217 0.0093,0.0122 0.01312,0.0284 0.01007,0.0434 -0.003,0.015 -0.01297,0.0285 -0.02649,0.0358 -0.01352,0.007 -0.03037,0.008 -0.04436,0.002 -0.01399,-0.006 -0.02476,-0.0194 -0.02798,-0.0343 -0.0032,-0.015 0.0013,-0.0315 0.01182,-0.0426 0.01053,-0.0111 0.02684,-0.0165 0.04189,-0.0137 0.01506,0.003 0.02834,0.0139 0.03368,0.0283 0,0 0,0 0,0 0,0 0,0 0,0 0,0 0,0 0,0 0,0 0,0 0,0 0,0 0,0 0,0 0,0 0,0 0,0 0,0 0,0 0,0 0,0 0,0 0,0 0,0 0,0 0,0 0,0 0,0 0,0 0,0 0,0 0,0 0,0 0,0 0,0 0,0 0,0 0,0 0,0 0,0 0,0 0,0 0,0 0,0 0,0 0,0 0,0 -3.9e-5,-1e-5 -6.9e-5,-5e-5 -6.7e-5,-8e-5 3e-6,-4e-5 3.6e-5,-8e-5 7.5e-5,-8e-5 3.9e-5,-1e-5 8e-5,10e-6 9.6e-5,5e-5 1.6e-5,4e-5 8e-6,8e-5 -2e-5,1.1e-4 -2.7e-5,3e-5 -7e-5,4e-5 -1.08e-4,3e-5 -3.8e-5,-10e-6 -6.8e-5,-5e-5 -8e-5,-8e-5 -1.1e-5,-4e-5 -3e-6,-8e-5 2e-5,-1.1e-4 2.3e-5,-4e-5 6e-5,-6e-5 9.9e-5,-6e-5 3.9e-5,-10e-6 7.9e-5,0 1.12e-4,2e-5 3.3e-5,2e-5 5.8e-5,6e-5 7.2e-5,9e-5 1.4e-5,4e-5 1.7e-5,8e-5 1.1e-5,1.2e-4 -7e-6,4e-5 -2.3e-5,8e-5 -4.5e-5,1.1e-4 -4.5e-5,6e-5 -1.13e-4,1.1e-4 -1.87e-4,1.4e-4 -7.3e-5,2e-5 -1.51e-4,4e-5 -2.29e-4,5e-5 1.21e-4,1.8e-4 2.4e-4,3.6e-4 3.87e-4,5.1e-4 1.47e-4,1.6e-4 3.25e-4,2.9e-4 5.3e-4,3.5e-4 1.03e-4,3e-5 2.12e-4,4e-5 3.18e-4,3e-5 1.06e-4,-10e-6 2.1e-4,-5e-5 2.97e-4,-1.1e-4 8.7e-5,-7e-5 1.57e-4,-1.5e-4 1.94e-4,-2.5e-4 3.8e-5,-10e-5 4.2e-5,-2.2e-4 7e-6,-3.2e-4 -3.4e-5,-1e-4 -1.08e-4,-1.9e-4 -2.04e-4,-2.4e-4 -9.6e-5,-4e-5 -2.13e-4,-5e-5 -3.11e-4,-10e-6 -9.8e-5,5e-5 -1.74e-4,1.4e-4 -1.94e-4,2.4e-4 -2.1e-5,1.1e-4 1.8e-5,2.2e-4 9.9e-5,2.9e-4 8.2e-5,7e-5 2.05e-4,9e-5 3.01e-4,4e-5 9.6e-5,-4e-5 1.58e-4,-1.6e-4 1.44e-4,-2.6e-4 -1.4e-5,-1.1e-4 -1.06e-4,-2e-4 -2.13e-4,-2.1e-4 -1.06e-4,-10e-6 -2.15e-4,7e-5 -2.4e-4,1.7e-4 -0.0031,0.12852 0.105224,0.25121 0.233512,0.25957 0.128288,0.008 0.253305,-0.1035 0.254881,-0.23205 0.0016,-0.12855 -0.125365,-0.24461 -0.252768,-0.22739 -0.127403,0.0172 -0.219103,0.16788 -0.172073,0.28753 0.04703,0.11965 0.2219,0.166 0.319525,0.0824 0.09762,-0.0836 0.075,-0.26781 -0.0416,-0.32195 -0.116604,-0.0541 -0.273954,0.0529 -0.262829,0.18094 0.01113,0.12808 0.190462,0.20494 0.288652,0.12195 0.09801,0.0225 0.195094,-0.1002 0.148354,-0.18923 -0.04674,-0.089 -0.206452,-0.0752 -0.234714,0.0213 -0.02826,0.0965 0.103993,0.19384 0.186339,0.13614 0.08235,-0.0577 0.03123,-0.21789 -0.06928,-0.21484 -0.100479,0.003 -0.138784,0.17077 -0.04856,0.2151 0.09022,0.0443 0.198728,-0.0942 0.132407,-0.1697 -0.06632,-0.0756 -0.218698,0.02 -0.177652,0.11173 0.04105,0.0918 0.216139,0.0362 0.194746,-0.062 0.0014,0.001 0.0022,0.003 0.0021,0.005 -1.4e-4,0.002 -0.0012,0.004 -0.0027,0.005 -0.0016,0.001 -0.0036,0.002 -0.0056,0.002 -0.002,-2.2e-4 -0.0039,-0.001 -0.0052,-0.003 -0.0013,-0.001 -0.0021,-0.003 -0.0023,-0.005 -1.33e-4,-0.002 3.93e-4,-0.004 0.0014,-0.006 0.001,-0.002 0.0026,-0.003 0.0044,-0.004 0.0018,-8.8e-4 0.0038,-0.001 0.0058,-0.001 0.004,2.1e-4 0.0077,0.002 0.01017,0.006 0.0024,0.003 0.0036,0.007 0.0037,0.0111 7.9e-5,0.004 -9.14e-4,0.008 -0.0025,0.0116 -0.0016,0.004 -0.0037,0.007 -0.006,0.0103 -0.0046,0.006 -0.01,0.0126 -0.01305,0.0199 -0.0015,0.004 -0.0025,0.008 -0.0023,0.0116 1.44e-4,0.004 0.0014,0.008 0.0039,0.0111 0.0025,0.003 0.0063,0.005 0.0103,0.005 0.002,4e-5 0.004,-4.1e-4 0.0058,-0.001 0.0018,-9.4e-4 0.0033,-0.002 0.0042,-0.004 9.79e-4,-0.002 0.0014,-0.004 0.0012,-0.006 -2.09e-4,-0.002 -0.0011,-0.004 -0.0025,-0.005 -0.0014,-0.001 -0.0033,-0.002 -0.0053,-0.002 -0.002,-1.3e-4 -0.004,5.3e-4 -0.0055,0.002 0,0 0,0 0,0 0,0 0,0 0,0 0,0 0,0 0,0 0,0 0,0 0,0 0,0 0,0 0,0 0,0 0,0 0,0 0,0 0,0 0,0 0,0 0,0 0,0 -1e-6,0 0,0 1e-6,0 0,0 -2e-6,0 -1e-6,0 0,0 1e-6,0 1e-6,0 -1e-6,0 -2e-6,0 -1e-6,0 0,0 1e-6,0 1e-6,0 -1e-6,0 -2e-6,0 -1e-6,0 0,0 1e-6,0 1e-6,0 -1e-6,0 -2e-6,0 -2e-6,0 9.6e-5,-1.3e-4 3.48e-4,-3e-5 3.34e-4,1.3e-4 -1.4e-5,1.6e-4 -2.66e-4,2.3e-4 -3.61e-4,9e-5 -9.4e-5,-1.3e-4 3.2e-5,-3.4e-4 1.92e-4,-3.3e-4 1.61e-4,10e-6 2.6e-4,2.3e-4 1.69e-4,3.6e-4 -9e-5,1.3e-4 -3.19e-4,1.3e-4 -4.1e-4,0 -9.2e-5,-1.4e-4 -2.6e-5,-3.4e-4 1.22e-4,-4.1e-4 1.48e-4,-6e-5 3.38e-4,3e-5 3.96e-4,1.8e-4 5.7e-5,1.5e-4 -1.9e-5,3.3e-4 -1.61e-4,4.1e-4 -1.47e-4,7e-5 -3.35e-4,2e-5 -4.44e-4,-1e-4 -1.08e-4,-1.2e-4 -1.33e-4,-3e-4 -7.2e-5,-4.5e-4 6.2e-5,-1.5e-4 2.03e-4,-2.6e-4 3.61e-4,-3e-4 1.58e-4,-4e-5 3.29e-4,0 4.66e-4,9e-5 1.37e-4,8e-5 2.4e-4,2.2e-4 3e-4,3.7e-4 6e-5,1.5e-4 7.8e-5,3.1e-4 6.5e-5,4.7e-4 -2.8e-5,3.3e-4 -1.76e-4,6.3e-4 -3.37e-4,9.1e-4 -1e-6,0 -1e-6,0 -1e-6,0 -1e-6,0 -1e-6,0 -1e-6,0 0,0 0,0 -10e-7,0 0,0 0,0 0,0 10e-7,0 10e-7,0 10e-7,0 0,0 0,0 1e-6,0 0,0 0,0 0,0 0,0 0,0 -1e-6,0 0,0 0,0 0,0 0,0 0,0 0,0 0,0 1e-6,0 1e-6,0 0,0 -1e-6,0 -1e-6,0 0,0 0,0 0,0 0,0 1e-6,0 1e-6,0 -1e-6,0 -1e-6,0 -1e-6,0 1.07e-4,-3.7e-4 -4.61e-4,-7.2e-4 -7.32e-4,-4.4e-4 -2.71e-4,2.8e-4 1.27e-4,8.4e-4 4.74e-4,6.7e-4 3.46e-4,-1.8e-4 8.9e-5,-8.5e-4 -2.82e-4,-7.3e-4 -3.71e-4,1.1e-4 -1.63e-4,8.3e-4 2.08e-4,7.1e-4 3.74e-4,-1.1e-4 1.04e-4,-8.3e-4 -2.46e-4,-6.6e-4 -3.51e-4,1.7e-4 9.8e-5,8.2e-4 3.75e-4,5.5e-4 2.78e-4,-2.7e-4 -4.11e-4,-7.1e-4 -5.28e-4,-3.4e-4 -1.16e-4,3.8e-4 7.18e-4,3.7e-4 5.85e-4,0 -0.364378,0.14754 0.239993,0.75796 0.382141,0.39145 0.142148,-0.36652 -0.727634,-0.27198 -0.502474,0.0503 0.22516,0.32224 0.571222,-0.49587 0.18465,-0.42446 -0.386572,0.0714 0.274281,0.68082 0.305997,0.28899 0.16788,-0.28091 -0.573723,-0.14064 -0.310917,0.0544 0.262805,0.195 0.134747,-0.55268 -0.04303,-0.27793 -0.177771,0.27474 0.544231,0.0387 0.236436,-0.0725 -0.307796,-0.11112 0.136333,0.50294 0.12158,0.17603 0.026,-0.0133 0.05627,-0.0182 0.08513,-0.0136 0.02887,0.005 0.05619,0.0184 0.07685,0.0391 0.02066,0.0207 0.03456,0.048 0.03909,0.0768 0.0045,0.0289 -3.19e-4,0.0591 -0.01365,0.0851 l 0.124951,0.0625 c 0.02071,-0.003 0.04176,-0.003 0.06247,0 0.06801,0.009 0.129613,0.0462 0.179853,0.0929 0.05024,0.0467 0.09073,0.10264 0.132524,0.15701 0.108151,0.14067 0.228676,0.27426 0.374853,0.37485 0.06188,0.0426 0.128008,0.079 0.187426,0.12495 0.142551,0.11022 0.238687,0.26869 0.326248,0.42618 0.08756,0.15749 0.171747,0.32041 0.298505,0.44848 0.06223,0.0629 0.134205,0.11675 0.187426,0.18742 0.05492,0.0729 0.08708,0.15999 0.129294,0.24095 0.02111,0.0405 0.04498,0.0798 0.07493,0.11424 0.02995,0.0344 0.06626,0.064 0.108151,0.0821 0.02162,0.009 0.04445,0.0156 0.06633,0.0243 0.02188,0.009 0.04328,0.0203 0.05862,0.0382 0.01526,0.0178 0.02344,0.0404 0.03129,0.0624 0.0079,0.0221 0.01599,0.0447 0.03119,0.0625 0.0109,0.0128 0.02505,0.0226 0.04028,0.0297 0.01523,0.007 0.03155,0.0116 0.04803,0.0149 0.03295,0.007 0.0669,0.008 0.09912,0.018 0.03762,0.0111 0.07176,0.0326 0.100169,0.0597 0.02841,0.0271 0.05125,0.0596 0.06969,0.0942 0.03689,0.0693 0.05629,0.14618 0.08004,0.22096 0.03249,0.10231 0.07408,0.20266 0.134911,0.2911 0.06083,0.0884 0.141987,0.1648 0.239941,0.2087 0.04267,0.0191 0.08906,0.0325 0.124951,0.0625 0.03614,0.0302 0.05781,0.0741 0.07418,0.11827 0.01637,0.0441 0.0286,0.0901 0.05077,0.13163 0.02791,0.0523 0.0704,0.0953 0.115191,0.13403 0.04479,0.0388 0.09256,0.0742 0.13471,0.11587 0.09086,0.0897 0.152082,0.20439 0.213774,0.31621 0.06169,0.11181 0.127049,0.22491 0.223554,0.30855 0.03375,0.0292 0.07083,0.0544 0.104724,0.0835 0.03389,0.0291 0.06507,0.0629 0.0827,0.1039 0.01708,0.0398 0.02048,0.0838 0.02563,0.12674 0.0051,0.043 0.01283,0.0872 0.03685,0.12316 0.01641,0.0246 0.03949,0.0438 0.06229,0.0626 0.0228,0.0188 0.04597,0.0379 0.06266,0.0623 0.02444,0.0357 0.03297,0.0798 0.03842,0.12271 0.0055,0.0429 0.0085,0.0868 0.02406,0.12722 0.02175,0.0566 0.06832,0.1032 0.12495,0.12494 -0.0038,0.0673 0.01907,0.13581 0.06248,0.18743 0.03797,0.0451 0.0903,0.0772 0.124951,0.12493 0.03316,0.0457 0.04745,0.102 0.06143,0.1567 0.01398,0.0547 0.02911,0.11093 0.06352,0.1557 0.03597,0.0468 0.0902,0.0772 0.124951,0.12493 0.03781,0.0519 0.04849,0.11864 0.05115,0.18281 0.0027,0.0642 -0.0015,0.12912 0.01132,0.19205 0.01873,0.0919 0.07208,0.17244 0.124951,0.2499 0.04463,0.0654 0.09017,0.13131 0.118056,0.20541 0.02788,0.0741 0.03668,0.15856 0.0069,0.23192 -0.01873,0.0461 -0.0519,0.0864 -0.06308,0.13492 -0.0056,0.0243 -0.0052,0.0506 0.0055,0.0731 0.0053,0.0112 0.0132,0.0214 0.02314,0.0288 0.0099,0.007 0.022,0.0123 0.03442,0.0131 0.0105,6.7e-4 0.02094,-0.001 0.03139,-0.003 0.01045,-0.001 0.02141,-0.001 0.03108,0.003 0.01069,0.005 0.0187,0.0144 0.02263,0.0253 0.0039,0.011 0.0041,0.023 0.002,0.0345 -0.0042,0.0229 -0.01675,0.0433 -0.02461,0.0652 -0.01149,0.032 -0.01275,0.0671 -0.0071,0.10059 0.0057,0.0335 0.01811,0.0656 0.03332,0.096 0.03041,0.0608 0.07207,0.11574 0.09869,0.17828 0.03542,0.0832 0.04243,0.17629 0.03468,0.26641 -0.0077,0.0901 -0.02963,0.17834 -0.05015,0.26644 -0.02052,0.0881 -0.03984,0.17714 -0.0423,0.26756 -0.0025,0.0904 0.01286,0.18316 0.05777,0.26168 0.01206,0.0211 0.02646,0.0418 0.03036,0.0658 0.002,0.012 0.0011,0.0246 -0.004,0.0357 -0.0025,0.006 -0.0061,0.0106 -0.0106,0.0147 -0.0045,0.004 -0.0099,0.007 -0.01575,0.009 -0.01012,0.003 -0.02088,0.001 -0.03127,-4.5e-4 -0.01039,-0.002 -0.02126,-0.003 -0.0312,4.5e-4 -0.0082,0.003 -0.0151,0.009 -0.01971,0.016 -0.0046,0.007 -0.007,0.0159 -0.0075,0.0245 -0.001,0.0172 0.0052,0.034 0.01262,0.0496 0.0074,0.0156 0.01605,0.0308 0.02046,0.0475 0.0022,0.008 0.0033,0.017 0.0025,0.0256 -7.71e-4,0.009 -0.0035,0.0171 -0.0084,0.0242 -0.0064,0.009 -0.01645,0.0157 -0.02724,0.0189 -0.01079,0.003 -0.02234,0.003 -0.03348,0.002 -0.02229,-0.003 -0.04284,-0.0136 -0.06423,-0.0207 -0.03813,-0.0126 -0.07882,-0.015 -0.118976,-0.016 -0.04016,-9.5e-4 -0.08061,-5.9e-4 -0.120082,-0.008 -0.03947,-0.007 -0.07854,-0.0235 -0.106269,-0.0525 -0.01386,-0.0145 -0.02463,-0.0322 -0.03016,-0.0515 -0.0055,-0.0193 -0.0057,-0.0403 6.36e-4,-0.0594 0.0036,-0.0108 0.0092,-0.0211 0.01106,-0.0323 9.31e-4,-0.006 8.78e-4,-0.0115 -8.59e-4,-0.0169 -0.0017,-0.005 -0.0053,-0.0104 -0.0102,-0.0133 -0.0047,-0.003 -0.01025,-0.003 -0.0156,-0.003 -0.0054,4.6e-4 -0.01055,0.002 -0.01572,0.003 -0.0052,0.001 -0.0104,0.003 -0.01577,0.003 -0.0054,2.7e-4 -0.01095,-7.1e-4 -0.0154,-0.004 -0.0046,-0.003 -0.0077,-0.008 -0.009,-0.0137 -0.0013,-0.005 -0.001,-0.0111 2.4e-5,-0.0166 0.0021,-0.011 0.0073,-0.0212 0.009,-0.0322 0.0025,-0.0163 -0.0033,-0.0333 -0.01382,-0.046 -0.01054,-0.0127 -0.02553,-0.0213 -0.04142,-0.0257 -0.03179,-0.009 -0.06562,-0.002 -0.09776,0.006 -0.03215,0.007 -0.06554,0.0155 -0.09778,0.008 -0.01612,-0.004 -0.03162,-0.011 -0.04321,-0.0227 -0.01159,-0.0118 -0.01896,-0.028 -0.01838,-0.0445 3.76e-4,-0.0107 0.004,-0.0211 0.0057,-0.0317 8.47e-4,-0.005 0.0012,-0.0107 4.44e-4,-0.0161 -7.67e-4,-0.005 -0.0027,-0.0106 -0.0061,-0.0147 -0.0036,-0.004 -0.0088,-0.008 -0.0144,-0.009 -0.0056,-0.002 -0.01145,-0.002 -0.01712,-5.6e-4 -0.01135,0.002 -0.02164,0.008 -0.03184,0.013 -0.0102,0.005 -0.02091,0.0105 -0.0324,0.0111 -0.0057,3.3e-4 -0.01162,-5.2e-4 -0.01684,-0.003 -0.0052,-0.002 -0.0098,-0.006 -0.01234,-0.0116 -0.0024,-0.005 -0.003,-0.0103 -0.0026,-0.0156 3.57e-4,-0.005 0.0016,-0.0105 0.0029,-0.0157 0.0013,-0.005 0.0025,-0.0104 0.0028,-0.0157 2.7e-4,-0.005 -4.87e-4,-0.0108 -0.003,-0.0155 -0.0028,-0.005 -0.0076,-0.009 -0.01303,-0.0112 -0.0054,-0.002 -0.01143,-0.003 -0.01723,-0.002 -0.01159,0.001 -0.02209,0.007 -0.03222,0.0131 -0.01014,0.006 -0.02063,0.0118 -0.03223,0.0132 -0.0058,7.1e-4 -0.01181,2.2e-4 -0.01724,-0.002 -0.0054,-0.002 -0.01024,-0.006 -0.013,-0.0112 -0.0025,-0.005 -0.0032,-0.0102 -0.0029,-0.0155 3.04e-4,-0.005 0.0016,-0.0105 0.0029,-0.0157 0.0013,-0.005 0.0026,-0.0104 0.0029,-0.0157 3.31e-4,-0.005 -3.47e-4,-0.0108 -0.0028,-0.0156 -0.0027,-0.005 -0.0074,-0.009 -0.01279,-0.0114 -0.0054,-0.002 -0.01134,-0.003 -0.01712,-0.002 -0.01157,0.001 -0.02213,0.007 -0.03228,0.0126 -0.01015,0.006 -0.02057,0.0116 -0.0321,0.0131 -0.0058,7.9e-4 -0.01174,4.5e-4 -0.01722,-0.002 -0.0055,-0.002 -0.01041,-0.006 -0.01345,-0.0106 -0.0028,-0.005 -0.0039,-0.01 -0.0039,-0.0153 -1.9e-5,-0.005 9.78e-4,-0.0106 0.0021,-0.0158 0.0011,-0.005 0.0024,-0.0104 0.003,-0.0157 5.84e-4,-0.005 4.37e-4,-0.0107 -0.0012,-0.0158 -0.0018,-0.005 -0.0054,-0.0102 -0.0099,-0.0138 -0.0045,-0.004 -0.0099,-0.006 -0.01549,-0.007 -0.0112,-0.002 -0.02296,-4.5e-4 -0.03386,0.003 -0.0109,0.004 -0.02125,0.009 -0.03203,0.0125 -0.01078,0.004 -0.0223,0.007 -0.03368,0.005 -0.01521,-0.002 -0.02879,-0.011 -0.03896,-0.0225 -0.01017,-0.0115 -0.01736,-0.0252 -0.02435,-0.0389 -0.007,-0.0136 -0.01394,-0.0275 -0.02373,-0.0393 -0.0098,-0.0118 -0.02284,-0.0215 -0.03791,-0.0244 -0.01088,-0.002 -0.02214,-3.8e-4 -0.03282,0.003 -0.01068,0.003 -0.02097,0.007 -0.0316,0.0102 -0.01063,0.003 -0.0218,0.005 -0.03276,0.004 -0.0055,-7.6e-4 -0.01086,-0.002 -0.01569,-0.005 -0.0048,-0.003 -0.0091,-0.007 -0.01209,-0.0111 -0.0029,-0.004 -0.0046,-0.01 -0.0054,-0.015 -7.64e-4,-0.005 -6.11e-4,-0.0107 -3e-6,-0.016 0.0012,-0.0106 0.0042,-0.0209 0.0054,-0.0316 0.0029,-0.0268 -0.0067,-0.0541 -0.02354,-0.0751 -0.01686,-0.021 -0.04057,-0.0359 -0.06601,-0.0447 -0.05087,-0.0176 -0.106512,-0.0117 -0.159999,-0.005 -0.05349,0.006 -0.109094,0.0122 -0.160031,-0.005 -0.02547,-0.009 -0.04924,-0.0235 -0.06621,-0.0444 -0.01697,-0.0209 -0.0267,-0.0482 -0.02402,-0.075 0.0011,-0.0106 0.004,-0.021 0.0052,-0.0315 5.96e-4,-0.005 7.54e-4,-0.0107 2e-5,-0.0159 -7.33e-4,-0.005 -0.0024,-0.0105 -0.0052,-0.015 -0.0029,-0.005 -0.0071,-0.009 -0.01189,-0.0114 -0.0048,-0.003 -0.01012,-0.005 -0.0156,-0.006 -0.01095,-0.002 -0.02221,-9e-5 -0.03292,0.003 -0.01071,0.003 -0.02105,0.007 -0.0317,0.0102 -0.01065,0.003 -0.02181,0.005 -0.03284,0.004 -0.01507,-0.002 -0.02892,-0.01 -0.03995,-0.0201 -0.01103,-0.0104 -0.01953,-0.0232 -0.02735,-0.0362 -0.0078,-0.013 -0.01508,-0.0264 -0.0241,-0.0386 -0.009,-0.0122 -0.02001,-0.0233 -0.03355,-0.0301 -0.01126,-0.006 -0.02385,-0.008 -0.03636,-0.01 -0.01251,-0.002 -0.02515,-0.002 -0.03751,-0.005 -0.01236,-0.003 -0.02461,-0.007 -0.03437,-0.015 -0.0049,-0.004 -0.0091,-0.009 -0.01206,-0.0144 -0.003,-0.006 -0.0047,-0.0118 -0.0046,-0.0181 7e-5,-0.0111 0.0054,-0.0215 0.008,-0.0323 0.0013,-0.005 0.0019,-0.0111 7.89e-4,-0.0165 -0.0011,-0.005 -0.0041,-0.0107 -0.0088,-0.0136 -0.0046,-0.003 -0.01047,-0.003 -0.0159,-0.003 -0.0054,8.4e-4 -0.01057,0.003 -0.01573,0.005 -0.0052,0.002 -0.01049,0.004 -0.01597,0.004 -0.0027,4e-5 -0.0055,-3.4e-4 -0.0081,-0.001 -0.0026,-9.4e-4 -0.005,-0.002 -0.0068,-0.004 -0.0018,-0.002 -0.0031,-0.005 -0.0037,-0.007 -6.56e-4,-0.003 -7.43e-4,-0.005 -4.46e-4,-0.008 5.94e-4,-0.005 0.0027,-0.0107 0.0047,-0.0158 0.002,-0.005 0.004,-0.0104 0.0044,-0.0159 2.03e-4,-0.003 -5e-6,-0.006 -7.98e-4,-0.008 -7.93e-4,-0.003 -0.0022,-0.005 -0.0042,-0.007 -0.002,-0.002 -0.0045,-0.003 -0.0072,-0.004 -0.0027,-7.3e-4 -0.0055,-8.6e-4 -0.0082,-6e-4 -0.0055,5.3e-4 -0.01072,0.003 -0.01585,0.005 -0.0051,0.002 -0.01036,0.004 -0.01587,0.005 -0.0028,2.4e-4 -0.0056,8e-5 -0.0082,-6.8e-4 -0.0027,-7.6e-4 -0.0052,-0.002 -0.0071,-0.004 -0.002,-0.002 -0.0033,-0.004 -0.004,-0.007 -7.43e-4,-0.003 -8.93e-4,-0.005 -6.35e-4,-0.008 5.17e-4,-0.006 0.0026,-0.0107 0.0047,-0.0159 0.0021,-0.005 0.0042,-0.0104 0.0047,-0.0159 2.55e-4,-0.003 10e-5,-0.006 -6.48e-4,-0.008 -7.48e-4,-0.003 -0.0021,-0.005 -0.0041,-0.007 -0.002,-0.002 -0.0045,-0.003 -0.0071,-0.004 -0.0027,-7.5e-4 -0.0055,-9.1e-4 -0.0082,-6.5e-4 -0.0055,5e-4 -0.01073,0.003 -0.01586,0.005 -0.0051,0.002 -0.01035,0.004 -0.01586,0.005 -0.0028,2.6e-4 -0.0056,1.2e-4 -0.0082,-6.2e-4 -0.0027,-7.4e-4 -0.0052,-0.002 -0.0072,-0.004 -0.002,-0.002 -0.0033,-0.004 -0.0041,-0.007 -7.61e-4,-0.003 -9.31e-4,-0.005 -6.92e-4,-0.008 4.8e-4,-0.006 0.0026,-0.0107 0.0046,-0.0159 0.0021,-0.005 0.0042,-0.0103 0.0047,-0.0159 2.69e-4,-0.003 1.38e-4,-0.006 -5.8e-4,-0.008 -7.18e-4,-0.003 -0.002,-0.005 -0.004,-0.007 -0.0019,-0.002 -0.0044,-0.003 -0.007,-0.004 -0.0026,-8e-4 -0.0054,-0.001 -0.0082,-8.5e-4 -0.0055,3.7e-4 -0.01076,0.002 -0.01589,0.004 -0.0051,0.002 -0.01033,0.004 -0.01581,0.005 -0.0027,3.1e-4 -0.0055,2.5e-4 -0.0082,-3.8e-4 -0.0027,-6.2e-4 -0.0053,-0.002 -0.0073,-0.004 -0.0021,-0.002 -0.0036,-0.004 -0.0046,-0.007 -0.001,-0.003 -0.0014,-0.005 -0.0015,-0.008 -6.9e-5,-0.005 0.0015,-0.0108 0.0033,-0.016 0.0018,-0.005 0.0038,-0.0103 0.0047,-0.0157 9.35e-4,-0.005 6.89e-4,-0.0112 -0.0019,-0.016 -0.0027,-0.005 -0.0077,-0.009 -0.01316,-0.0101 -0.0055,-0.002 -0.01131,-0.001 -0.01689,-3.3e-4 -0.01115,0.002 -0.02134,0.008 -0.03243,0.0105 -0.01266,0.003 -0.02616,0.001 -0.03813,-0.004 -0.01198,-0.005 -0.02245,-0.0133 -0.03074,-0.0233 -0.01657,-0.02 -0.02414,-0.046 -0.02746,-0.0718 -0.0033,-0.0257 -0.0028,-0.0518 -0.0054,-0.0777 -0.0026,-0.0258 -0.0085,-0.0521 -0.02325,-0.0734 -0.01082,-0.0157 -0.02591,-0.028 -0.04223,-0.0378 -0.01632,-0.01 -0.03393,-0.0173 -0.05147,-0.0247 -0.01754,-0.007 -0.03515,-0.0148 -0.05147,-0.0247 -0.01632,-0.01 -0.03143,-0.0221 -0.04226,-0.0378 -0.01475,-0.0213 -0.02073,-0.0475 -0.02332,-0.0734 -0.0026,-0.0258 -0.0021,-0.0519 -0.0054,-0.0776 -0.0033,-0.0257 -0.01089,-0.0517 -0.02742,-0.0717 -0.0083,-0.01 -0.01871,-0.0183 -0.03066,-0.0233 -0.01195,-0.005 -0.02543,-0.007 -0.03809,-0.004 -0.01108,0.002 -0.02126,0.008 -0.0324,0.0103 -0.0056,0.001 -0.0114,0.001 -0.01685,-3e-4 -0.0054,-0.002 -0.01048,-0.005 -0.01323,-0.01 -0.0026,-0.005 -0.003,-0.0105 -0.0022,-0.0159 8.29e-4,-0.005 0.0028,-0.0105 0.0045,-0.0157 0.0017,-0.005 0.0033,-0.0105 0.0033,-0.016 8e-6,-0.003 -3.74e-4,-0.005 -0.0013,-0.008 -9.09e-4,-0.003 -0.0024,-0.005 -0.0043,-0.007 -0.002,-0.002 -0.0044,-0.003 -0.007,-0.004 -0.0026,-8.1e-4 -0.0054,-0.001 -0.0081,-10e-4 -0.0055,1.8e-4 -0.01073,0.002 -0.01589,0.004 -0.0052,0.002 -0.01033,0.004 -0.01574,0.004 -0.0054,6.9e-4 -0.01119,5e-5 -0.01575,-0.003 -0.0046,-0.003 -0.0076,-0.008 -0.0086,-0.0137 -0.0011,-0.005 -4.58e-4,-0.0111 8.31e-4,-0.0165 0.0026,-0.0108 0.0078,-0.0212 0.0078,-0.0323 -2.1e-5,-0.006 -0.0018,-0.0125 -0.0048,-0.0181 -0.003,-0.006 -0.0073,-0.0103 -0.01218,-0.0143 -0.0098,-0.008 -0.02207,-0.0122 -0.03441,-0.0147 -0.01234,-0.003 -0.02495,-0.003 -0.03743,-0.005 -0.01247,-0.002 -0.02501,-0.004 -0.03612,-0.0104 -0.01727,-0.009 -0.0298,-0.0256 -0.03823,-0.0433 -0.0084,-0.0177 -0.01322,-0.0368 -0.01861,-0.0556 -0.0054,-0.0188 -0.01154,-0.0377 -0.02229,-0.0541 -0.0054,-0.008 -0.01189,-0.0157 -0.01961,-0.0217 -0.0077,-0.006 -0.01667,-0.0106 -0.02623,-0.0127 -0.0102,-0.002 -0.02079,-0.002 -0.0312,-9.2e-4 -0.01041,8.3e-4 -0.02088,0.002 -0.03128,9.2e-4 -0.01362,-0.001 -0.02674,-0.007 -0.03816,-0.0141 -0.01141,-0.008 -0.02116,-0.0175 -0.02923,-0.0285 -0.01613,-0.0221 -0.02545,-0.0484 -0.03366,-0.0745 -0.0082,-0.0261 -0.01561,-0.0527 -0.02858,-0.0769 -0.01296,-0.0241 -0.03232,-0.0459 -0.05781,-0.0559 -0.01984,-0.008 -0.04263,-0.008 -0.06247,0 -0.114401,-0.19091 -0.263296,-0.36107 -0.437328,-0.4998 -0.08163,-0.0651 -0.168731,-0.1233 -0.247505,-0.19181 -0.07877,-0.0685 -0.150054,-0.14899 -0.189822,-0.24552 -0.04057,-0.0985 -0.04603,-0.20715 -0.06248,-0.31236 -0.01108,-0.0709 -0.02751,-0.1414 -0.05699,-0.20677 -0.02948,-0.0654 -0.07265,-0.12563 -0.130438,-0.16809 -0.02437,-0.0179 -0.05112,-0.0325 -0.0746,-0.0516 -0.02348,-0.0191 -0.04411,-0.0438 -0.05035,-0.0734 -0.0043,-0.0205 -0.0015,-0.0417 0.0011,-0.0625 0.0025,-0.0208 0.0046,-0.0423 -0.0011,-0.0624 -0.0062,-0.022 -0.02139,-0.0406 -0.03913,-0.055 -0.01774,-0.0144 -0.03812,-0.0251 -0.05817,-0.0361 -0.02005,-0.011 -0.04013,-0.0224 -0.05686,-0.038 -0.01673,-0.0156 -0.03005,-0.0358 -0.03326,-0.0584 -0.003,-0.021 0.0028,-0.0421 0.0064,-0.063 0.0018,-0.0104 0.0031,-0.0211 0.0024,-0.0317 -6.49e-4,-0.0106 -0.0033,-0.0212 -0.0089,-0.0302 -0.0062,-0.0101 -0.0159,-0.0178 -0.02645,-0.0233 -0.01055,-0.005 -0.02204,-0.009 -0.03354,-0.0119 -0.0115,-0.003 -0.02313,-0.006 -0.03431,-0.01 -0.01118,-0.004 -0.02199,-0.01 -0.03066,-0.0177 -0.0085,-0.008 -0.01464,-0.0182 -0.01853,-0.0291 -0.0039,-0.0109 -0.0056,-0.0226 -0.0058,-0.0342 -4.83e-4,-0.0232 0.0047,-0.0462 0.0083,-0.0691 0.0036,-0.023 0.0057,-0.0468 -7.32e-4,-0.0691 -0.0032,-0.0112 -0.0086,-0.0218 -0.01641,-0.0304 -0.0078,-0.009 -0.018,-0.0152 -0.02932,-0.0179 -0.01017,-0.002 -0.0208,-0.002 -0.0312,-6.2e-4 -0.01041,0.001 -0.02093,0.002 -0.03127,6.2e-4 -0.01577,-0.002 -0.03018,-0.0114 -0.04055,-0.0235 -0.01037,-0.0121 -0.01688,-0.0272 -0.02015,-0.0429 -0.0065,-0.0312 -5.3e-4,-0.0635 0.0047,-0.095 0.0052,-0.0315 0.0096,-0.0644 5.4e-5,-0.0948 -0.0048,-0.0152 -0.01315,-0.0295 -0.02519,-0.04 -0.01204,-0.0105 -0.02789,-0.0169 -0.04383,-0.0162 -0.01074,4.8e-4 -0.02108,0.004 -0.0317,0.006 -0.0053,8.2e-4 -0.01074,0.001 -0.01606,3.9e-4 -0.0053,-7.8e-4 -0.01054,-0.003 -0.01471,-0.006 -0.0044,-0.004 -0.0075,-0.009 -0.0091,-0.0142 -0.0016,-0.005 -0.0017,-0.0113 -9.25e-4,-0.017 0.0016,-0.0113 0.007,-0.0217 0.01216,-0.0319 0.0051,-0.0102 0.01017,-0.0208 0.01103,-0.0322 4.28e-4,-0.006 -2.34e-4,-0.0115 -0.0024,-0.0168 -0.0022,-0.005 -0.0059,-0.01 -0.01075,-0.013 -0.0045,-0.003 -0.0099,-0.004 -0.01524,-0.004 -0.0053,-8e-5 -0.01058,8.2e-4 -0.01579,0.002 -0.0052,0.001 -0.01038,0.002 -0.01565,0.003 -0.0053,6.2e-4 -0.01069,5.9e-4 -0.0158,-8.6e-4 -0.0088,-0.002 -0.01612,-0.009 -0.02027,-0.0173 -0.0041,-0.008 -0.0053,-0.0176 -0.0042,-0.0267 0.0022,-0.0182 0.01272,-0.0341 0.02307,-0.0492 0.01035,-0.0151 0.02111,-0.0308 0.02386,-0.0489 0.0014,-0.009 6.07e-4,-0.0186 -0.0032,-0.0269 -0.0038,-0.008 -0.01068,-0.0154 -0.0193,-0.0185 -0.005,-0.002 -0.01035,-0.002 -0.01561,-0.002 -0.0053,3e-4 -0.01047,0.001 -0.01566,0.002 -0.0052,9.6e-4 -0.01041,0.002 -0.01568,0.002 -0.0053,1.7e-4 -0.01064,-4.4e-4 -0.01552,-0.002 -0.0053,-0.002 -0.0098,-0.006 -0.01319,-0.0105 -0.0034,-0.005 -0.0056,-0.01 -0.0068,-0.0155 -0.0024,-0.0111 -5.66e-4,-0.0227 0.0027,-0.0336 0.0033,-0.0109 0.0081,-0.0213 0.01181,-0.032 0.0037,-0.0107 0.0065,-0.0221 0.0054,-0.0334 -0.0014,-0.0152 -0.0094,-0.0291 -0.02002,-0.04 -0.01059,-0.0109 -0.02363,-0.0191 -0.03683,-0.0267 -0.0132,-0.008 -0.02675,-0.0147 -0.03894,-0.0238 -0.01219,-0.009 -0.02311,-0.0205 -0.02915,-0.0344 -0.0084,-0.0193 -0.0066,-0.0414 -0.0035,-0.0622 0.0031,-0.0208 0.0073,-0.042 0.0035,-0.0627 -0.0035,-0.019 -0.01369,-0.0362 -0.02615,-0.0509 -0.01246,-0.0147 -0.02723,-0.0273 -0.0416,-0.0402 -0.01437,-0.0129 -0.02853,-0.0263 -0.03938,-0.0422 -0.01086,-0.016 -0.0183,-0.0348 -0.01782,-0.0541 5.62e-4,-0.0223 0.01144,-0.0429 0.01661,-0.0646 0.0026,-0.0109 0.0037,-0.0223 0.0014,-0.0332 -0.0023,-0.0109 -0.0085,-0.0213 -0.01799,-0.0271 -0.0091,-0.006 -0.02034,-0.007 -0.03095,-0.005 -0.01061,0.001 -0.02096,0.004 -0.03152,0.005 -0.02131,0.003 -0.04332,5.3e-4 -0.0636,-0.007 -0.02028,-0.007 -0.03882,-0.0191 -0.05436,-0.034 -0.03109,-0.0298 -0.04964,-0.0712 -0.0564,-0.11369 -0.0068,-0.0425 -0.0024,-0.0862 0.0076,-0.12813 0.0099,-0.0419 0.02524,-0.0823 0.04055,-0.12254 0.01532,-0.0403 0.03072,-0.0806 0.04079,-0.12247 0.01008,-0.0419 0.01474,-0.0855 0.0083,-0.1281 -0.0064,-0.0426 -0.02457,-0.0841 -0.05531,-0.11426 -0.01537,-0.0151 -0.03375,-0.0272 -0.05393,-0.0347 -0.02018,-0.007 -0.04215,-0.0104 -0.0635,-0.008 -0.01055,0.001 -0.0209,0.004 -0.03149,0.005 -0.01059,0.001 -0.02174,1.8e-4 -0.03099,-0.005 -0.0098,-0.006 -0.01655,-0.0157 -0.01949,-0.0266 -0.0029,-0.0109 -0.0024,-0.0225 -7.8e-5,-0.0336 0.0046,-0.0221 0.01583,-0.0425 0.01957,-0.0648 0.0033,-0.0195 5.62e-4,-0.0397 -0.0062,-0.0583 -0.0068,-0.0186 -0.01752,-0.0355 -0.0302,-0.0506 -0.02536,-0.0303 -0.05806,-0.0534 -0.08854,-0.0785 -0.112241,-0.0926 -0.1966,-0.21688 -0.249742,-0.35234 -0.05314,-0.13547 -0.07575,-0.28188 -0.07511,-0.4274 0.0013,-0.29102 0.09349,-0.57374 0.199902,-0.84462 0.058,-0.14764 0.120512,-0.29351 0.187426,-0.43733 z"
       id="path15" />
    <path
       style="fill:#ff7f2a;stroke-width:0.264583"
       d="m 19.242416,254.39973 c -0.02068,-0.0238 -0.03434,-0.0536 -0.03886,-0.0848 -0.0045,-0.0312 1.24e-4,-0.0637 0.0132,-0.0924 0.01308,-0.0287 0.03455,-0.0535 0.06107,-0.0705 0.02652,-0.0171 0.058,-0.0263 0.08953,-0.0263 0.03153,0 0.06301,0.009 0.08953,0.0263 0.02652,0.017 0.048,0.0419 0.06107,0.0705 0.01308,0.0287 0.01772,0.0612 0.01321,0.0924 -0.0045,0.0312 -0.01818,0.061 -0.03886,0.0848 -0.03096,0.0356 -0.07775,0.057 -0.124951,0.057 -0.0472,0 -0.09399,-0.0213 -0.12495,-0.057 -0.03374,-0.0388 -0.04777,-0.0931 -0.04055,-0.14407 0.0072,-0.0509 0.03474,-0.0981 0.0732,-0.13227 0.03846,-0.0342 0.08734,-0.0557 0.137998,-0.0647 0.05066,-0.009 0.103044,-0.006 0.153218,0.006 0.10035,0.0227 0.190365,0.0769 0.27745,0.13171 0.08709,0.0548 0.174745,0.11177 0.27334,0.1412 0.08118,0.0242 0.170128,0.0285 0.249902,0 0.0439,-0.0157 0.08375,-0.0407 0.12495,-0.0625 0.271072,-0.14358 0.594573,-0.14708 0.899088,-0.11013 0.304514,0.0369 0.605952,0.11087 0.912698,0.11013 0.208661,-5e-4 0.419142,-0.0355 0.624754,0 0.214539,0.0371 0.410455,0.14899 0.624754,0.18743 0.07579,0.0136 0.153078,0.0178 0.228665,0.0325 0.07559,0.0147 0.151229,0.0411 0.208662,0.0924 0.04403,0.0393 0.07596,0.092 0.124951,0.12495 0.0471,0.0317 0.104889,0.0418 0.160271,0.0543 0.02769,0.006 0.05533,0.0132 0.08152,0.0242 0.02619,0.0109 0.05101,0.026 0.07058,0.0465 0.03238,0.034 0.04805,0.0803 0.07317,0.11993 0.01257,0.0198 0.02787,0.0384 0.04741,0.0514 0.01954,0.013 0.04372,0.0201 0.06685,0.0161 0.01077,-0.002 0.02104,-0.006 0.03186,-0.008 0.0054,-8.1e-4 0.01096,-9.5e-4 0.01631,1.9e-4 0.0053,0.001 0.01049,0.004 0.0143,0.008 0.0038,0.004 0.0061,0.009 0.0072,0.0144 0.001,0.005 8.03e-4,0.0109 -3.1e-5,0.0162 -0.0017,0.0108 -0.0057,0.0211 -0.0071,0.0318 -0.002,0.0157 0.0019,0.0319 0.0095,0.0458 0.0076,0.0139 0.01875,0.0257 0.03133,0.0353 0.02517,0.0193 0.05557,0.0301 0.08417,0.0438 0.104799,0.0501 0.187226,0.1399 0.243226,0.24167 0.056,0.10178 0.08729,0.21538 0.108439,0.3296 0.04229,0.22845 0.0474,0.46889 0.148138,0.67824 0.04043,0.084 0.09566,0.16136 0.124951,0.2499 0.02965,0.0896 0.03111,0.18612 0.02419,0.28024 -0.0069,0.0941 -0.02192,0.18769 -0.02419,0.28204 -0.0062,0.25829 0.08286,0.50948 0.102168,0.76712 0.0097,0.12882 0.0013,0.26097 -0.04388,0.382 -0.04517,0.12103 -0.129998,0.23038 -0.245713,0.28781 -0.0283,0.014 -0.05848,0.0251 -0.08355,0.0443 -0.01254,0.01 -0.02369,0.0213 -0.03137,0.0351 -0.0077,0.0138 -0.01175,0.0299 -0.01003,0.0455 0.0012,0.0108 0.005,0.0211 0.0066,0.0318 7.99e-4,0.005 0.001,0.0108 9.4e-5,0.0162 -9.39e-4,0.005 -0.0031,0.0105 -0.0067,0.0146 -0.0037,0.004 -0.0087,0.007 -0.01408,0.008 -0.0054,0.001 -0.011,0.002 -0.01651,8.7e-4 -0.011,-0.001 -0.02133,-0.006 -0.03188,-0.009 -0.04225,-0.0136 -0.08913,-0.009 -0.130298,0.007 -0.04116,0.0166 -0.07689,0.045 -0.106437,0.0781 -0.0591,0.0663 -0.09377,0.15009 -0.138118,0.227 -0.120291,0.20862 -0.316166,0.36882 -0.536997,0.46487 -0.22083,0.096 -0.465542,0.1303 -0.706138,0.12004 -0.481193,-0.0205 -0.936217,-0.21231 -1.38083,-0.39748 -0.344604,-0.14352 -0.693303,-0.28643 -0.999606,-0.4998 -0.146118,-0.10179 -0.283863,-0.22179 -0.374853,-0.37486 -0.132482,-0.22288 -0.15277,-0.50665 -0.06247,-0.7497 0.04251,-0.11443 0.107883,-0.21979 0.187426,-0.31238 0.07618,-0.0887 0.164938,-0.16558 0.246125,-0.24969 0.08119,-0.0841 0.156102,-0.17771 0.196385,-0.28745 0.02014,-0.0549 0.03127,-0.11337 0.02929,-0.17179 -0.002,-0.0584 -0.01733,-0.11674 -0.04729,-0.16693 -0.02995,-0.0502 -0.0748,-0.0919 -0.128404,-0.11524 -0.0536,-0.0233 -0.115876,-0.0275 -0.171156,-0.009 -0.01048,0.004 -0.02084,0.008 -0.03185,0.009 -0.0055,6.4e-4 -0.01115,4.8e-4 -0.0165,-9.8e-4 -0.0053,-0.001 -0.0104,-0.004 -0.01413,-0.008 -0.0037,-0.004 -0.006,-0.009 -0.007,-0.0145 -0.0011,-0.005 -9.74e-4,-0.0109 -2.48e-4,-0.0162 0.0015,-0.0108 0.0054,-0.0211 0.0073,-0.0318 0.0029,-0.0161 0.0012,-0.033 -0.0042,-0.0484 -0.0054,-0.0154 -0.01454,-0.0295 -0.02595,-0.0413 -0.02282,-0.0235 -0.05428,-0.0373 -0.08649,-0.0433 -0.06441,-0.012 -0.130272,0.005 -0.19573,0.008 -0.142158,0.006 -0.279104,-0.0551 -0.39864,-0.13226 -0.119536,-0.0772 -0.22791,-0.1713 -0.351065,-0.24259 -0.183692,-0.10633 -0.392891,-0.15794 -0.593197,-0.22812 -0.200306,-0.0702 -0.401742,-0.16609 -0.53136,-0.33416 -0.10557,-0.13689 -0.154004,-0.3111 -0.164935,-0.48362 -0.01093,-0.17253 0.01323,-0.34519 0.03999,-0.51598 0.02114,-0.13495 0.04446,-0.27136 0.100366,-0.39599 0.05591,-0.12463 0.148649,-0.2381 0.274486,-0.29124 0.0216,-0.009 0.04395,-0.0164 0.06549,-0.0256 0.02155,-0.009 0.04252,-0.0206 0.05946,-0.0369 0.01705,-0.0163 0.02946,-0.037 0.03881,-0.0586 0.0094,-0.0217 0.01581,-0.0445 0.02236,-0.0671 0.0066,-0.0227 0.01326,-0.0454 0.02309,-0.0669 0.0098,-0.0214 0.02294,-0.0417 0.04069,-0.0573 0.01759,-0.0154 0.03907,-0.0256 0.0607,-0.0345 0.02163,-0.009 0.04382,-0.0166 0.06425,-0.028 0.03879,-0.0216 0.06943,-0.0551 0.09777,-0.0893 0.02833,-0.0342 0.0554,-0.0699 0.08966,-0.0982 0.0454,-0.0374 0.101784,-0.06 0.159575,-0.071 0.05779,-0.011 0.117179,-0.011 0.175874,-0.007 0.11739,0.008 0.235314,0.0323 0.35178,0.0155 0.03715,-0.005 0.07469,-0.0149 0.111719,-0.009 0.01852,0.003 0.03665,0.0102 0.05083,0.0225 0.01418,0.0123 0.02409,0.03 0.02488,0.0488 4.42e-4,0.0105 -0.0019,0.021 -0.0032,0.0315 -0.0013,0.0105 -0.0014,0.0215 0.0032,0.031 0.0027,0.006 0.007,0.0104 0.01196,0.0141 0.005,0.004 0.01071,0.006 0.01664,0.008 0.01186,0.004 0.02443,0.004 0.03682,0.005 0.01239,9.6e-4 0.02501,0.002 0.03626,0.008 0.0056,0.003 0.01084,0.006 0.01498,0.0109 0.0041,0.005 0.0072,0.0103 0.0083,0.0164 9.68e-4,0.005 4.93e-4,0.0108 -5.2e-4,0.016 -0.001,0.005 -0.0026,0.0104 -0.0037,0.0157 -0.0012,0.005 -0.002,0.0106 -0.0016,0.016 4.46e-4,0.005 0.0023,0.0107 0.0058,0.0148 0.0036,0.004 0.0089,0.007 0.01423,0.007 0.0054,9.4e-4 0.01092,4.6e-4 0.01628,-6e-4 0.01071,-0.002 0.02105,-0.007 0.03197,-0.007 0.0095,-2.4e-4 0.01894,0.003 0.02679,0.008 0.0078,0.005 0.01409,0.0129 0.0183,0.0214 0.0084,0.017 0.0086,0.0372 0.004,0.0556 -0.0092,0.0368 -0.03562,0.0669 -0.04909,0.10234 -0.01491,0.0393 -0.01309,0.0827 -0.0083,0.12447 0.0048,0.0417 0.01238,0.0836 0.0083,0.12543 -0.0065,0.0663 -0.04249,0.12744 -0.09075,0.1734 -0.04826,0.046 -0.108131,0.078 -0.169784,0.10335 -0.123305,0.0506 -0.25963,0.078 -0.364224,0.16058 -0.06941,0.0548 -0.119798,0.13043 -0.187426,0.18743 -0.06788,0.0572 -0.152554,0.0943 -0.240645,0.10528 -0.08809,0.011 -0.179279,-0.004 -0.259158,-0.0428 z"
       id="path16" />
    <path
       style="fill:#ff7f2a;stroke-width:0.264583"
       d="m 28.051445,267.39461 c 0.528618,-0.16415 1.049931,-0.35182 1.561883,-0.56227 0.440076,-0.1809 0.873082,-0.37856 1.311984,-0.56229 1.082875,-0.45331 2.241001,-0.84705 3.061293,-1.68683 0.469265,-0.48041 0.796785,-1.07781 1.187031,-1.62436 0.04366,-0.0611 0.08825,-0.12187 0.124953,-0.18743 0.09365,-0.16728 0.132463,-0.35985 0.15057,-0.5507 0.01811,-0.19085 0.01683,-0.3832 0.03685,-0.57386 0.02626,-0.25003 0.08914,-0.49971 0.06248,-0.7497 -0.03556,-0.3335 -0.228726,-0.63263 -0.465606,-0.87006 -0.23688,-0.23744 -0.518524,-0.42426 -0.783902,-0.62935 -0.211028,-0.16309 -0.412474,-0.33835 -0.624755,-0.4998 -0.427482,-0.32513 -0.895886,-0.59207 -1.338364,-0.89647 -0.442479,-0.30441 -0.865813,-0.65383 -1.16065,-1.10274 -0.408999,-0.62273 -0.538665,-1.38413 -0.624755,-2.12417 -0.01451,-0.12475 -0.02792,-0.2524 0,-0.37485 0.02798,-0.12273 0.09601,-0.23276 0.173633,-0.33186 0.07762,-0.0991 0.165724,-0.18967 0.242249,-0.28961 0.07653,-0.0999 0.142237,-0.21174 0.166152,-0.33532 0.01196,-0.0618 0.01315,-0.12599 7.3e-5,-0.18756 -0.01307,-0.0616 -0.04069,-0.12041 -0.0823,-0.16763 -0.05228,-0.0593 -0.125769,-0.0987 -0.203502,-0.11316 -0.07773,-0.0144 -0.159301,-0.004 -0.232752,0.0248 -0.07345,0.0293 -0.138831,0.0773 -0.191602,0.13623 -0.05277,0.0589 -0.09313,0.12835 -0.121848,0.20201 -0.04373,0.11217 -0.06087,0.23382 -0.110264,0.34361 -0.0247,0.0549 -0.05778,0.10681 -0.102546,0.14706 -0.04477,0.0402 -0.101942,0.0682 -0.162042,0.0716 -0.0208,0.001 -0.04166,-5.6e-4 -0.06248,0 -0.09465,0.003 -0.183799,0.0533 -0.246787,0.12403 -0.06299,0.0707 -0.102126,0.15976 -0.128064,0.25082 -0.0291,0.10217 -0.0427,0.208 -0.06248,0.31238 -0.0885,0.46701 -0.30075,0.90494 -0.374853,1.37445 -0.05858,0.37117 -0.02894,0.74991 0,1.12456 0.07715,0.99888 0.147985,2.00796 0,2.99882 -0.147718,0.98907 -0.512001,1.93828 -0.999604,2.81139 -0.05483,0.0982 -0.111512,0.1959 -0.181764,0.28369 -0.07025,0.0878 -0.154974,0.16586 -0.255566,0.21611 -0.0417,0.0208 -0.08602,0.0369 -0.124949,0.0625 -0.04939,0.0325 -0.08775,0.0789 -0.12522,0.12465 -0.03747,0.0457 -0.07559,0.0923 -0.124682,0.12525 -0.07211,0.0484 -0.160804,0.0632 -0.24318,0.0907 -0.04119,0.0138 -0.08164,0.0312 -0.116519,0.0571 -0.03488,0.0259 -0.06407,0.0608 -0.07763,0.10208 -0.0076,0.023 -0.01016,0.0475 -0.01786,0.0705 -0.0039,0.0115 -0.009,0.0226 -0.01637,0.0323 -0.0073,0.01 -0.01697,0.0177 -0.02825,0.0222 -0.0098,0.004 -0.0206,0.005 -0.03115,0.004 -0.01055,-5.3e-4 -0.02097,-0.003 -0.03134,-0.005 -0.01037,-0.002 -0.0208,-0.004 -0.03135,-0.004 -0.01056,-4.6e-4 -0.02132,6.4e-4 -0.03111,0.005 -0.0093,0.004 -0.01754,0.0102 -0.02412,0.0178 -0.0066,0.008 -0.01159,0.0166 -0.01541,0.0259 -0.0076,0.0187 -0.01051,0.0389 -0.0144,0.0587 -0.0039,0.0198 -0.0091,0.0399 -0.02051,0.0565 -0.0057,0.008 -0.013,0.0156 -0.02166,0.0208 -0.0087,0.005 -0.01877,0.008 -0.02885,0.008 -0.01088,-4.7e-4 -0.0212,-0.005 -0.0319,-0.007 -0.0054,-0.001 -0.01087,-0.001 -0.01623,-4.9e-4 -0.0054,9.2e-4 -0.01058,0.003 -0.01434,0.007 -0.0037,0.004 -0.0058,0.009 -0.0065,0.0145 -7.26e-4,0.005 -1.62e-4,0.0108 8.82e-4,0.0161 0.0021,0.0106 0.0061,0.021 0.0057,0.0318 -3.13e-4,0.008 -0.0029,0.0153 -0.007,0.0219 -0.004,0.007 -0.0095,0.0123 -0.0155,0.0171 -0.01206,0.01 -0.02636,0.0161 -0.03997,0.0235 -0.01324,0.007 -0.02602,0.0154 -0.03703,0.0257 -0.01101,0.0103 -0.02023,0.0227 -0.02545,0.0368 -0.0073,0.0197 -0.0065,0.0414 -0.0042,0.0622 0.0023,0.0209 0.006,0.0418 0.0042,0.0627 -0.0034,0.038 -0.02473,0.0722 -0.04941,0.10135 -0.02468,0.0292 -0.05328,0.055 -0.07554,0.0861 -0.03761,0.0525 -0.05507,0.11708 -0.06145,0.18132 -0.0064,0.0642 -0.0024,0.12898 -0.001,0.19352 0.0045,0.20999 -0.01881,0.41955 -0.02363,0.62954 -0.0048,0.20998 0.0097,0.42434 0.08611,0.61998 0.08868,0.22698 0.265341,0.42278 0.491395,0.51379 0.113027,0.0455 0.236956,0.0646 0.358175,0.0523 0.121219,-0.0123 0.239454,-0.0564 0.33746,-0.12876 0.03387,-0.025 0.06527,-0.0533 0.09941,-0.0779 0.03415,-0.0246 0.07173,-0.0459 0.11296,-0.0544 0.02062,-0.004 0.042,-0.005 0.06278,-0.002 0.02079,0.003 0.04096,0.0111 0.05803,0.0235 0.01706,0.0123 0.03091,0.0293 0.03864,0.0489 0.0077,0.0196 0.0092,0.0418 0.003,0.0619 -0.0033,0.0108 -0.0087,0.0211 -0.01054,0.0323 -9.19e-4,0.006 -9.04e-4,0.0114 7.37e-4,0.0168 0.0016,0.005 0.005,0.0104 0.0098,0.0134 0.0045,0.003 0.01007,0.004 0.01542,0.004 0.0053,-2.5e-4 0.01058,-0.002 0.01575,-0.003 0.0052,-0.001 0.01037,-0.003 0.0157,-0.003 0.0053,-4.4e-4 0.01088,1.7e-4 0.01561,0.003 0.0051,0.003 0.009,0.008 0.01105,0.013 0.0021,0.005 0.0024,0.0114 0.0016,0.0172 -0.0016,0.0115 -0.0075,0.0219 -0.01269,0.0323 -0.04444,0.0887 -0.04142,0.19949 0.0078,0.28561 0.04921,0.0861 0.143147,0.14499 0.242109,0.15172 z"
       id="path17" />
    <path
       style="fill:#ff7f2a;stroke-width:0.264583"
       d="m 27.864017,272.08027 c -0.09587,-0.0362 -0.178306,-0.10684 -0.228746,-0.19604 -0.05044,-0.0892 -0.0685,-0.19626 -0.0501,-0.29706 0.01839,-0.10081 0.0731,-0.19459 0.151793,-0.26022 0.07869,-0.0656 0.180773,-0.10262 0.283244,-0.10262 0.10247,0 0.20455,0.037 0.283243,0.10262 0.07869,0.0656 0.133398,0.15941 0.151793,0.26022 0.0184,0.1008 3.38e-4,0.20786 -0.0501,0.29706 -0.05044,0.0892 -0.13288,0.15985 -0.228746,0.19604 -0.09956,0.0376 -0.212814,0.0376 -0.312377,0 -0.08457,-0.0319 -0.158619,-0.0902 -0.211443,-0.16358 -0.05282,-0.0734 -0.08451,-0.16139 -0.09294,-0.2514 -0.0084,-0.09 0.0062,-0.18179 0.03991,-0.26566 0.03373,-0.0839 0.08636,-0.15981 0.151398,-0.22259 0.130076,-0.12557 0.307712,-0.19614 0.487752,-0.21266 0.18004,-0.0165 0.362328,0.0185 0.531233,0.083 0.33781,0.12897 0.618775,0.36907 0.913736,0.57823 0.14748,0.10458 0.300677,0.20265 0.466292,0.27517 0.165615,0.0725 0.344668,0.11904 0.525453,0.11697 0.175679,-0.002 0.347948,-0.0496 0.512399,-0.11141 0.164452,-0.0618 0.323144,-0.13811 0.487208,-0.20096 0.166207,-0.0637 0.337882,-0.11354 0.499803,-0.18743 0.273906,-0.125 0.512051,-0.31495 0.749702,-0.4998 0.490704,-0.38169 0.993784,-0.75102 1.436934,-1.18702 0.277943,-0.27346 0.534895,-0.57821 0.687231,-0.93713 0.06057,-0.14271 0.10412,-0.29288 0.176151,-0.43016 0.03602,-0.0686 0.07924,-0.13396 0.132943,-0.18985 0.0537,-0.0559 0.118226,-0.10224 0.190709,-0.12972 0.05298,-0.0201 0.109197,-0.0298 0.16427,-0.0432 0.05507,-0.0133 0.11037,-0.0308 0.156234,-0.0641 0.02293,-0.0166 0.04325,-0.0371 0.05817,-0.0612 0.01492,-0.0241 0.02434,-0.0518 0.0254,-0.0801 0.0011,-0.0283 -0.0065,-0.0572 -0.02264,-0.0804 -0.01619,-0.0233 -0.04122,-0.0405 -0.06906,-0.0458 -0.02052,-0.004 -0.04163,-0.001 -0.06248,0 -0.06236,0.004 -0.124974,-0.002 -0.187425,0 -0.115031,0.004 -0.22778,0.0382 -0.330882,0.0894 -0.103101,0.0512 -0.197026,0.11933 -0.284643,0.19399 -0.175233,0.14931 -0.326906,0.32551 -0.509031,0.46633 -0.216884,0.1677 -0.477183,0.28246 -0.749705,0.31236 -0.05316,0.006 -0.106687,0.008 -0.159604,0.0162 -0.05292,0.008 -0.105701,0.0209 -0.152774,0.0463 -0.04596,0.0248 -0.08498,0.0604 -0.123915,0.0952 -0.03893,0.0348 -0.07891,0.0696 -0.125986,0.0922 -0.0776,0.0373 -0.167298,0.0383 -0.249902,0.0625 -0.117222,0.0344 -0.21499,0.11367 -0.312375,0.18743 -0.479527,0.36319 -1.033913,0.63469 -1.624362,0.74969 -0.104254,0.0203 -0.20958,0.0358 -0.312375,0.0625 -0.217335,0.0565 -0.418187,0.16183 -0.624755,0.2499 -0.763934,0.32572 -1.637584,0.41405 -2.43654,0.18743 -0.258848,-0.0734 -0.508604,-0.17866 -0.77125,-0.23706 -0.262645,-0.0584 -0.54791,-0.0665 -0.790633,0.0496 -0.03319,0.0159 -0.06558,0.0341 -0.09342,0.0582 -0.02784,0.0241 -0.05109,0.0543 -0.06281,0.0892 -0.01172,0.0349 -0.0111,0.0746 0.0058,0.10729 0.0085,0.0163 0.02086,0.0307 0.03613,0.041 0.01527,0.0103 0.03341,0.0163 0.05181,0.0168 0.01047,2.5e-4 0.02089,-0.001 0.03133,-0.002 0.01044,-8.4e-4 0.02114,-9.3e-4 0.03115,0.002 0.0117,0.004 0.02187,0.0113 0.0295,0.0209 0.0076,0.01 0.01287,0.0208 0.01662,0.0325 0.0075,0.0233 0.0092,0.0481 0.01635,0.0715 0.01077,0.0352 0.03373,0.066 0.06213,0.0894 0.0284,0.0234 0.06208,0.0398 0.09698,0.0515 0.0698,0.0234 0.144346,0.0285 0.215746,0.0465 0.179077,0.045 0.330305,0.16978 0.439723,0.31853 0.109417,0.14874 0.18149,0.32121 0.247506,0.49366 0.02743,0.0717 0.05419,0.14405 0.09279,0.21036 0.0386,0.0663 0.09017,0.12697 0.157108,0.16448 0.07352,0.0412 0.163635,0.0517 0.244676,0.0286 0.08104,-0.0231 0.151993,-0.0797 0.192652,-0.15352 z"
       id="path18" />
    <path
       style="fill:#ff7f2a;stroke-width:0.264583"
       d="m 31.799966,251.21349 c 0.698198,0 1.362786,0.33936 1.883944,0.80399 0.521157,0.46462 0.918508,1.0493 1.302301,1.63255 0.06679,0.1015 0.133522,0.20347 0.187425,0.31237 0.125915,0.25438 0.177827,0.53764 0.249902,0.81218 0.145043,0.55247 0.377018,1.08228 0.687229,1.56189 0.265556,0.41057 0.587132,0.78309 0.93713,1.12455 0.249615,0.24352 0.516187,0.47332 0.818793,0.64665 0.302606,0.17332 0.644271,0.28868 0.992994,0.29048 0.107371,5.5e-4 0.218351,-0.0106 0.312375,-0.0625 0.0782,-0.0431 0.139722,-0.11194 0.187429,-0.18743 0.100464,-0.15898 0.14407,-0.35163 0.130208,-0.53918 -0.01386,-0.18754 -0.08396,-0.36946 -0.192688,-0.5229 -0.04349,-0.0614 -0.09346,-0.11911 -0.124953,-0.18742 -0.04465,-0.0969 -0.04855,-0.20663 -0.06247,-0.31238 -0.05641,-0.42861 -0.283703,-0.81261 -0.499803,-1.18703 -0.119646,-0.2073 -0.243132,-0.42236 -0.437327,-0.56228 -0.06094,-0.0439 -0.127682,-0.0794 -0.187429,-0.12495 -0.129998,-0.099 -0.220351,-0.2398 -0.312375,-0.37485 -0.375635,-0.55124 -0.820281,-1.05127 -1.249508,-1.56189 -0.142476,-0.16949 -0.283541,-0.3405 -0.437327,-0.4998 -0.446731,-0.46276 -1.005421,-0.82461 -1.624361,-0.99961 -0.12699,-0.0359 -0.25755,-0.0645 -0.374851,-0.12495 -0.119079,-0.0614 -0.219624,-0.15323 -0.312378,-0.2499 -0.211032,-0.21993 -0.392647,-0.47293 -0.641752,-0.64858 -0.124553,-0.0878 -0.265946,-0.15499 -0.416502,-0.17864 -0.150556,-0.0236 -0.310768,-0.001 -0.441153,0.0775 -0.09249,0.056 -0.166837,0.13763 -0.256633,0.19782 -0.0449,0.0301 -0.09409,0.0549 -0.146937,0.0662 -0.05285,0.0114 -0.109686,0.009 -0.158709,-0.0142 -0.0105,-0.005 -0.02084,-0.0107 -0.0323,-0.0123 -0.0057,-8.1e-4 -0.01169,-5.1e-4 -0.01712,0.001 -0.0054,0.002 -0.0103,0.006 -0.01306,0.0109 -0.0025,0.005 -0.0032,0.0103 -0.0027,0.0156 4.37e-4,0.005 0.0019,0.0105 0.0033,0.0157 0.0014,0.005 0.0027,0.0104 0.003,0.0158 2.54e-4,0.005 -6.68e-4,0.0109 -0.0035,0.0154 -0.003,0.005 -0.008,0.008 -0.01346,0.01 -0.0054,0.002 -0.01122,0.002 -0.01678,6.1e-4 -0.01114,-0.002 -0.02136,-0.007 -0.03224,-0.0103 -0.01723,-0.005 -0.03597,-0.004 -0.05268,0.003 -0.01671,0.006 -0.03137,0.0178 -0.04231,0.0319 -0.01094,0.0141 -0.01821,0.031 -0.02175,0.0485 -0.0035,0.0175 -0.0034,0.0357 -3.42e-4,0.0533 0.0061,0.0352 0.02359,0.0677 0.04513,0.0962 0.02154,0.0286 0.04716,0.0537 0.07195,0.0795 0.124594,0.1296 0.230191,0.27744 0.312378,0.43733 3e-6,0 5e-6,0 8e-6,0 z"
       id="path19" />
    <path
       style="fill:#0000ff;stroke-width:0.264583"
       d="m 17.75976,228.77375 c -0.0096,-0.0444 -0.0078,-0.0912 0.0054,-0.13472 0.01315,-0.0435 0.03755,-0.0835 0.07018,-0.11513 0.03262,-0.0316 0.0734,-0.0547 0.117271,-0.0665 0.04387,-0.0118 0.09075,-0.0122 0.134824,-0.001 0.04407,0.011 0.08524,0.0334 0.11841,0.0645 0.03317,0.031 0.05826,0.0706 0.07217,0.11389 0.01391,0.0433 0.0166,0.09 0.0077,0.13461 -0.0089,0.0445 -0.02924,0.0868 -0.05863,0.12141 -0.03221,0.038 -0.0752,0.0667 -0.122604,0.082 -0.0474,0.0152 -0.09908,0.0169 -0.147388,0.005 -0.04831,-0.0121 -0.0931,-0.0379 -0.127753,-0.0737 -0.03465,-0.0358 -0.05906,-0.0813 -0.06962,-0.13 -0.01462,-0.0674 -0.0022,-0.13967 0.03089,-0.20015 0.03314,-0.0605 0.08631,-0.10916 0.147934,-0.14012 0.06162,-0.031 0.131377,-0.0445 0.200316,-0.0426 0.06894,0.002 0.137061,0.019 0.200309,0.0465 0.126496,0.055 0.231662,0.14983 0.323467,0.25277 0.09181,0.10294 0.172589,0.21537 0.265492,0.31732 0.03711,0.0407 0.07611,0.0797 0.11684,0.11684 0.07813,0.0385 0.15603,0.0774 0.233682,0.11684 1.051097,0.53372 2.099643,1.19807 2.687332,2.21997 0.102834,0.17881 0.191082,0.36956 0.223931,0.5732 0.03285,0.20364 0.0059,0.4226 -0.107091,0.5952 -0.06888,0.10526 -0.165669,0.18852 -0.255216,0.27688 -0.08955,0.0883 -0.175212,0.18707 -0.212146,0.30733 -0.01836,0.0598 -0.02392,0.12263 -0.03703,0.18376 -0.01311,0.0611 -0.03524,0.12291 -0.07981,0.16676 -0.03124,0.0307 -0.07146,0.0506 -0.112133,0.0669 -0.04067,0.0163 -0.08268,0.0297 -0.121548,0.0499 -0.08457,0.044 -0.150491,0.11938 -0.192742,0.20484 -0.04225,0.0855 -0.06199,0.18071 -0.06831,0.27583 -0.01263,0.19026 0.02683,0.38022 0.02737,0.57089 8.06e-4,0.28454 -0.08475,0.56205 -0.111734,0.8453 -0.01349,0.14163 -0.0121,0.28605 0.02173,0.42424 0.03383,0.13819 0.101754,0.27033 0.206845,0.36623 0.103879,0.0948 0.23773,0.14969 0.350522,0.23368 0.158346,0.11791 0.270153,0.29033 0.341125,0.47456 0.07097,0.18423 0.103625,0.38088 0.126237,0.57701 0.06579,0.57061 0.05002,1.14729 0.08479,1.72063 0.03476,0.57334 0.123716,1.15498 0.382577,1.66774 0.0097,0.0191 0.01971,0.0387 0.02218,0.06 0.0012,0.0106 4.95e-4,0.0216 -0.0031,0.0317 -0.0036,0.0101 -0.01014,0.0193 -0.01909,0.0252 -0.0083,0.005 -0.01832,0.008 -0.02825,0.008 -0.0099,4.5e-4 -0.01986,-0.001 -0.02962,-0.003 -0.01951,-0.004 -0.03951,-0.01 -0.05897,-0.005 -0.01325,0.003 -0.02546,0.0103 -0.03398,0.0208 -0.0085,0.0105 -0.0133,0.024 -0.0133,0.0376 0,0.0135 0.0048,0.0271 0.0133,0.0376 0.0085,0.0105 0.02073,0.018 0.03398,0.0208 -0.04512,-0.0227 -0.100972,-0.0228 -0.14616,-2.2e-4 -0.04519,0.0226 -0.07863,0.0673 -0.08752,0.11706 -0.0069,0.0384 2.25e-4,0.0778 0,0.11684 -3.68e-4,0.0639 -0.02079,0.12704 -0.05544,0.18067 -0.03465,0.0536 -0.08321,0.0978 -0.13846,0.12978 -0.110499,0.064 -0.244535,0.0784 -0.371132,0.0616 -0.253195,-0.0335 -0.475764,-0.18126 -0.720209,-0.25525 -0.243662,-0.0738 -0.503584,-0.0725 -0.757409,-0.0529 -0.253826,0.0196 -0.506968,0.0569 -0.761517,0.0529 -0.215776,-0.003 -0.432237,-0.0368 -0.634332,-0.11249 -0.202095,-0.0757 -0.389618,-0.19455 -0.534074,-0.35487 -0.24651,-0.27358 -0.353788,-0.64745 -0.584202,-0.93472 -0.16634,-0.20738 -0.389123,-0.36029 -0.591579,-0.5326 -0.101228,-0.0862 -0.198306,-0.17813 -0.279736,-0.28319 -0.08143,-0.10507 -0.14708,-0.2239 -0.18025,-0.35262 -0.0297,-0.11527 -0.03283,-0.23542 -0.04156,-0.35413 -0.0087,-0.11872 -0.02392,-0.23952 -0.07528,-0.34691 -0.03807,-0.0796 -0.09452,-0.14869 -0.142786,-0.22256 -0.04826,-0.0739 -0.08951,-0.15658 -0.09089,-0.2448 -9.37e-4,-0.0598 0.01648,-0.1181 0.02535,-0.17721 0.0044,-0.0296 0.0067,-0.0596 0.0035,-0.0893 -0.0032,-0.0297 -0.01219,-0.0592 -0.02885,-0.084 -0.01541,-0.0229 -0.03677,-0.0411 -0.05797,-0.0588 -0.0212,-0.0177 -0.04279,-0.0355 -0.05887,-0.058 -0.01749,-0.0244 -0.02777,-0.0536 -0.03228,-0.0833 -0.0045,-0.0297 -0.0034,-0.06 3.77e-4,-0.0899 0.0076,-0.0596 0.02589,-0.11758 0.0319,-0.17738 0.0084,-0.084 -0.0078,-0.16904 -0.0366,-0.24834 -0.02883,-0.0793 -0.07003,-0.1535 -0.112968,-0.22614 -0.08589,-0.14528 -0.181904,-0.29255 -0.200955,-0.46024 -0.0088,-0.0776 -5.25e-4,-0.15604 0.0058,-0.23392 0.0064,-0.0779 0.01068,-0.15707 -0.0058,-0.23344 -0.01848,-0.0855 -0.06213,-0.16317 -0.107957,-0.23764 -0.04582,-0.0745 -0.09478,-0.14794 -0.125724,-0.22972 -0.0418,-0.11047 -0.04878,-0.23132 -0.04139,-0.34921 0.0074,-0.11788 0.02859,-0.23442 0.04139,-0.35184 0.05313,-0.48721 -0.0389,-0.97685 -0.112672,-1.46136 -0.07377,-0.48451 -0.128737,-0.98565 -0.0042,-1.45965 0.05187,-0.19735 0.133777,-0.38524 0.205656,-0.57622 0.07188,-0.19097 0.134445,-0.3884 0.144865,-0.59219 0.006,-0.11671 -0.0053,-0.23377 0,-0.35052 0.0094,-0.20695 0.07142,-0.4106 0.173807,-0.59069 0.102382,-0.18009 0.244581,-0.33669 0.410396,-0.46087 0.426918,-0.31972 1.01565,-0.41029 1.518927,-0.23368 z"
       id="path20"
       transform="translate(0.93472421,1.6357674)" />
    <path
       style="fill:#0000ff;stroke-width:0.264583"
       d="m 36.337404,235.31682 c 0.183492,0.0272 0.375118,-0.003 0.54103,-0.0864 0.165911,-0.083 0.305353,-0.21791 0.393692,-0.38102 0.07591,-0.14016 0.113894,-0.29854 0.127664,-0.45733 0.01377,-0.1588 0.0041,-0.31869 -0.01082,-0.47739 -0.112556,-1.20051 -0.52465,-2.36883 -1.168405,-3.38838 -0.07475,-0.11838 -0.152993,-0.23536 -0.24773,-0.33844 -0.09474,-0.10308 -0.207052,-0.19237 -0.336473,-0.24576 -0.113951,-0.047 -0.238536,-0.0653 -0.350523,-0.11684 -0.177417,-0.0816 -0.307427,-0.23846 -0.467362,-0.35052 -0.147051,-0.10304 -0.319043,-0.16736 -0.495392,-0.20115 -0.176349,-0.0338 -0.357339,-0.0378 -0.536586,-0.0273 -0.358494,0.0211 -0.712232,0.0998 -1.07115,0.11158 -0.367556,0.0121 -0.743019,-0.0454 -1.098849,0.0475 -0.177916,0.0464 -0.348962,0.13241 -0.474366,0.26689 -0.0627,0.0672 -0.113367,0.14611 -0.145287,0.23233 -0.03192,0.0862 -0.04484,0.17982 -0.03411,0.27113 0.0046,0.0393 0.01355,0.0781 0.01685,0.11756 0.0033,0.0395 6e-4,0.0806 -0.01685,0.11612 -0.01224,0.0249 -0.03121,0.046 -0.05193,0.0645 -0.02073,0.0185 -0.04338,0.0347 -0.06491,0.0523 -0.169729,0.13847 -0.262503,0.36124 -0.257121,0.58022 0.0054,0.21898 0.104299,0.43126 0.257121,0.58819 0.03843,0.0395 0.08018,0.0757 0.116843,0.11684 0.136935,0.15356 0.192759,0.36223 0.226117,0.56525 0.03336,0.20303 0.04936,0.41158 0.124403,0.60315 0.122708,0.31323 0.387565,0.54493 0.584202,0.81789 0.363404,0.50445 0.486409,1.13863 0.584203,1.75261 0.14161,0.88906 0.249899,1.79695 0.11684,2.68733 -0.06286,0.42065 -0.187335,0.84826 -0.46736,1.1684 -0.196407,0.22454 -0.462817,0.385 -0.750591,0.46362 -0.287774,0.0786 -0.59584,0.0764 -0.885177,0.004 -0.179339,-0.045 -0.352641,-0.11665 -0.535956,-0.14086 -0.09166,-0.0121 -0.185713,-0.012 -0.275656,0.009 -0.08994,0.0214 -0.175763,0.0649 -0.239953,0.13148 -0.05908,0.0612 -0.09766,0.13894 -0.14768,0.20778 -0.02501,0.0344 -0.0532,0.0669 -0.08702,0.0928 -0.03381,0.0258 -0.0736,0.0448 -0.115828,0.05 -0.03869,0.005 -0.07791,-0.002 -0.11684,0 -0.04652,0.002 -0.09206,0.0179 -0.131484,0.0427 -0.03942,0.0248 -0.07275,0.0589 -0.09818,0.0979 -0.05086,0.0781 -0.06927,0.17421 -0.06429,0.26724 0.01,0.18607 0.106483,0.3544 0.177114,0.52683 0.0934,0.22802 0.143531,0.47171 0.23368,0.70104 0.03192,0.0812 0.06897,0.16075 0.116843,0.23369 0.133519,0.20346 0.345848,0.34579 0.573057,0.43296 0.22721,0.0872 0.470414,0.12352 0.712188,0.15124 0.736963,0.0845 1.484157,0.094 2.219971,0 0.256622,-0.0328 0.513247,-0.0785 0.75602,-0.16788 0.242774,-0.0894 0.472423,-0.22455 0.646065,-0.41632 0.211563,-0.23365 0.328006,-0.53517 0.467363,-0.81789 0.411101,-0.83403 1.044127,-1.53732 1.518925,-2.33681 0.444066,-0.74774 0.748628,-1.58675 0.817885,-2.45365 0.0093,-0.11667 0.01438,-0.23436 0,-0.35052 -0.04291,-0.34659 -0.270262,-0.66488 -0.584202,-0.81788 z"
       id="path24" />
    <path
       style="fill:#0000ff;stroke-width:0.264583"
       d="m 26.289118,226.55378 c -0.682034,2.42307 -0.920825,4.97017 -0.701043,7.47779 0.06149,0.70156 0.157675,1.41676 0,2.10313 -0.06863,0.29875 -0.183959,0.58434 -0.281847,0.87483 -0.09789,0.29048 -0.179241,0.59158 -0.175946,0.8981 0.0033,0.30652 0.09964,0.62196 0.315559,0.83955 0.107957,0.10879 0.244262,0.19068 0.39311,0.22722 0.148848,0.0366 0.310004,0.0265 0.450167,-0.0355 0.08014,-0.0354 0.15205,-0.0867 0.2266,-0.13276 0.07455,-0.0461 0.15412,-0.0878 0.240763,-0.10092 0.03865,-0.006 0.07819,-0.006 0.11684,0 0.08055,-0.0333 0.158706,-0.0724 0.23368,-0.11684 0.333061,-0.19747 0.593984,-0.49447 0.840195,-0.79331 0.246211,-0.29884 0.487308,-0.60816 0.795573,-0.84246 0.272018,-0.20675 0.592037,-0.35156 0.834227,-0.59257 0.121095,-0.1205 0.221349,-0.26593 0.268043,-0.43026 0.04669,-0.16433 0.03573,-0.34873 -0.0507,-0.49609 -0.05409,-0.0922 -0.134937,-0.16656 -0.224242,-0.22532 -0.08931,-0.0588 -0.187322,-0.10287 -0.285676,-0.14476 -0.09835,-0.0419 -0.197782,-0.0819 -0.291477,-0.13341 -0.09369,-0.0515 -0.182153,-0.11509 -0.250171,-0.19756 -0.07726,-0.0937 -0.125667,-0.20915 -0.14896,-0.32832 -0.02329,-0.11918 -0.02224,-0.24215 -0.0078,-0.36271 0.02893,-0.24112 0.110467,-0.47265 0.156733,-0.71105 0.08629,-0.44461 0.04842,-0.90237 0.03716,-1.35514 -0.01125,-0.45277 0.0077,-0.92053 0.196517,-1.3322 0.09477,-0.20661 0.229262,-0.39194 0.350523,-0.5842 0.474825,-0.75284 0.753159,-1.62329 1.285245,-2.33681 0.301036,-0.40369 0.695419,-0.7586 1.176793,-0.90647 0.240687,-0.0739 0.49977,-0.0936 0.746174,-0.0418 0.246403,0.0518 0.479179,0.17687 0.647524,0.3641 0.105934,0.11782 0.185163,0.25764 0.291291,0.37529 0.05306,0.0588 0.113169,0.11217 0.182422,0.15064 0.06925,0.0385 0.148181,0.0616 0.227332,0.0583 0.03939,-0.002 0.07821,-0.01 0.117466,-0.0134 0.03925,-0.004 0.08012,-0.002 0.116214,0.0134 0.02935,0.0129 0.0537,0.0347 0.07833,0.0552 0.02463,0.0205 0.05095,0.0406 0.0819,0.0489 0.01548,0.004 0.03195,0.005 0.04758,0.002 0.01563,-0.004 0.03038,-0.0118 0.04056,-0.0242 0.01017,-0.0124 0.01546,-0.029 0.01303,-0.0448 -0.0012,-0.008 -0.0043,-0.0156 -0.0091,-0.022 -0.0048,-0.006 -0.01125,-0.0116 -0.01862,-0.0147 -0.0092,-0.004 -0.01951,-0.005 -0.02944,-0.003 -0.0099,0.001 -0.01962,0.004 -0.02931,0.006 -0.0097,0.002 -0.01953,0.005 -0.02952,0.005 -0.01,1.4e-4 -0.02024,-0.002 -0.02857,-0.007 -0.0088,-0.006 -0.01492,-0.0152 -0.01792,-0.0253 -0.003,-0.0101 -0.003,-0.0209 -0.0014,-0.0314 0.0033,-0.0208 0.01319,-0.04 0.01928,-0.0602 0.01076,-0.0357 0.0095,-0.0746 -0.0017,-0.1101 -0.01116,-0.0356 -0.03192,-0.0678 -0.05824,-0.0941 -0.05262,-0.0528 -0.125482,-0.0812 -0.198814,-0.0944 -0.07333,-0.0132 -0.148329,-0.0126 -0.222786,-0.0155 -0.07446,-0.003 -0.149979,-0.01 -0.219504,-0.0364 -0.09137,-0.0352 -0.166125,-0.10262 -0.237126,-0.17006 -0.071,-0.0674 -0.142204,-0.13757 -0.230236,-0.18046 -0.110938,-0.0541 -0.240577,-0.0608 -0.35052,-0.11684 -0.07414,-0.0378 -0.135727,-0.0963 -0.190523,-0.15893 -0.0548,-0.0626 -0.10391,-0.13012 -0.16,-0.19159 -0.133669,-0.14649 -0.304272,-0.25552 -0.484335,-0.3386 -0.180062,-0.0831 -0.370349,-0.14148 -0.560271,-0.19853 -0.189922,-0.0571 -0.380721,-0.11324 -0.562618,-0.19223 -0.181896,-0.079 -0.355748,-0.18192 -0.495906,-0.32221 -0.03894,-0.039 -0.07521,-0.0807 -0.11684,-0.11684 -0.09842,-0.0853 -0.223783,-0.13565 -0.352024,-0.15846 -0.128242,-0.0228 -0.259834,-0.0194 -0.389471,-0.007 -0.259275,0.0253 -0.519843,0.0872 -0.777431,0.0483 -0.119602,-0.0181 -0.235345,-0.0576 -0.355356,-0.0727 -0.06001,-0.008 -0.121194,-0.009 -0.180741,0.002 -0.05955,0.0106 -0.117531,0.0335 -0.164945,0.0711 -0.05538,0.0439 -0.09391,0.10528 -0.127409,0.16747 -0.0335,0.0622 -0.0634,0.1269 -0.106274,0.18305 -0.05035,0.066 -0.116643,0.11757 -0.180661,0.17035 -0.06402,0.0528 -0.127599,0.10877 -0.169859,0.18017 -0.06088,0.10286 -0.07156,0.2271 -0.07503,0.34657 -0.0035,0.11947 -0.0017,0.2419 -0.04181,0.35448 -0.03411,0.0957 -0.09841,0.18035 -0.181422,0.23889 -0.08301,0.0586 -0.184359,0.0907 -0.28594,0.0907 -0.10158,0 -0.202924,-0.0321 -0.285939,-0.0907 -0.08302,-0.0585 -0.147316,-0.14321 -0.181422,-0.23889 z"
       id="path25" />
    <path
       style="fill:#0000ff;stroke-width:0.264583"
       d="m 25.003872,242.91145 c -0.06033,0.0481 -0.105232,0.11522 -0.126609,0.18935 -0.02138,0.0741 -0.01913,0.15487 0.0063,0.22769 0.02547,0.0728 0.07403,0.13736 0.13694,0.18201 0.06291,0.0446 0.139873,0.0692 0.217017,0.0692 0.07714,0 0.154105,-0.0245 0.217017,-0.0692 0.06291,-0.0447 0.111474,-0.10919 0.13694,-0.18201 0.02547,-0.0728 0.02771,-0.15357 0.0063,-0.22769 -0.02138,-0.0741 -0.06628,-0.14127 -0.126609,-0.18935 -0.06577,-0.0524 -0.149585,-0.0817 -0.233681,-0.0817 -0.0841,0 -0.167912,0.0293 -0.233681,0.0817 -0.09437,0.0752 -0.148244,0.19601 -0.149684,0.31667 -0.0014,0.12065 0.04726,0.23964 0.126414,0.33072 0.07915,0.0911 0.187274,0.15488 0.303016,0.189 0.115742,0.0341 0.238871,0.0394 0.358616,0.0245 0.239491,-0.0297 0.461491,-0.13719 0.676908,-0.24597 0.215417,-0.10879 0.43347,-0.22189 0.671019,-0.26443 0.275267,-0.0493 0.56342,8.6e-4 0.817883,0.11684 0.158565,0.0723 0.305419,0.16934 0.467363,0.23368 0.369978,0.14699 0.789112,0.11273 1.168405,0.23368 0.445343,0.14201 0.803282,0.48687 1.246923,0.63411 0.22182,0.0736 0.469481,0.0939 0.686956,0.008 0.108737,-0.0428 0.207897,-0.11189 0.280713,-0.20329 0.07281,-0.0914 0.118392,-0.20542 0.122218,-0.32222 0.0037,-0.11164 -0.03064,-0.22292 -0.08894,-0.3182 -0.0583,-0.0953 -0.139843,-0.1751 -0.231317,-0.23921 -0.182948,-0.12823 -0.401373,-0.19337 -0.614467,-0.26047 -1.093054,-0.34418 -2.155415,-0.79174 -3.271533,-1.05156 -0.783289,-0.18234 -1.59521,-0.27305 -2.336811,-0.58421 -0.136177,-0.0571 -0.272056,-0.12226 -0.418674,-0.13991 -0.07331,-0.009 -0.148782,-0.005 -0.219183,0.017 -0.0704,0.0223 -0.135539,0.064 -0.180027,0.12295 -0.04213,0.0558 -0.06453,0.12582 -0.06475,0.19575 -2.19e-4,0.0699 0.02142,0.13947 0.0595,0.19812 0.03807,0.0587 0.09226,0.10641 0.154256,0.13875 0.062,0.0323 0.131626,0.0494 0.201519,0.0516 0.03894,0.001 0.07794,-0.002 0.116841,0 0.09638,0.005 0.190556,0.0447 0.261745,0.10991 0.07119,0.0652 0.11887,0.1555 0.13252,0.25105 0.01365,0.0956 -0.0068,0.19562 -0.05692,0.27812 -0.05009,0.0825 -0.12943,0.14684 -0.220501,0.1788 z"
       id="path26" />
    <rect
       style="fill:#333333;stroke-width:0.264583"
       id="rect43"
       width="1.9321698"
       height="9.6608486"
       x="58.931175"
       y="131.38753" />
    <path
       style="fill:#0000ff;stroke-width:0.264583"
       d="m 27.924887,242.79461 c -0.249067,0.36667 -0.568058,0.68566 -0.934726,0.93472 -0.207474,0.14093 -0.435917,0.26508 -0.584203,0.46736 -0.101361,0.13827 -0.157736,0.3035 -0.235622,0.45623 -0.03894,0.0764 -0.08379,0.15035 -0.140954,0.21423 -0.05717,0.0639 -0.127291,0.11752 -0.207626,0.14743 -0.120888,0.045 -0.255983,0.0339 -0.379661,0.0705 -0.06184,0.0183 -0.121546,0.0497 -0.162795,0.0993 -0.02062,0.0248 -0.0363,0.0539 -0.04409,0.0852 -0.0078,0.0313 -0.0075,0.0648 0.0023,0.0955 0.0065,0.0203 0.01713,0.0394 0.02071,0.0605 0.0018,0.0105 0.0017,0.0215 -0.0015,0.0317 -0.0032,0.0102 -0.0099,0.0195 -0.0192,0.0247 -0.0088,0.005 -0.01932,0.006 -0.02934,0.005 -0.01002,-0.001 -0.01971,-0.004 -0.02938,-0.007 -0.0097,-0.003 -0.01949,-0.006 -0.02957,-0.006 -0.01007,-3.5e-4 -0.02054,0.002 -0.02855,0.008 -0.0082,0.006 -0.01308,0.0161 -0.01482,0.0262 -0.0017,0.0101 -5.38e-4,0.0206 0.0018,0.0306 0.0046,0.02 0.01374,0.0395 0.01304,0.06 -4.11e-4,0.0122 -0.0044,0.0242 -0.01094,0.0345 -0.0066,0.0103 -0.01571,0.0189 -0.02617,0.0251 -0.02092,0.0126 -0.04665,0.0157 -0.07075,0.0118 -0.0241,-0.004 -0.04672,-0.0144 -0.06733,-0.0275 -0.02061,-0.0131 -0.03943,-0.0287 -0.05848,-0.044 -0.17626,-0.1412 -0.375953,-0.2509 -0.552632,-0.39157 -0.08834,-0.0703 -0.171043,-0.14867 -0.238598,-0.23916 -0.06756,-0.0905 -0.119745,-0.1936 -0.143495,-0.30399 -0.03289,-0.15288 -0.0104,-0.31134 0,-0.46737 0.01554,-0.23324 0.0036,-0.46731 0,-0.70104 -0.0071,-0.45668 0.01785,-0.91704 0.127884,-1.36033 0.110034,-0.44328 0.308803,-0.8707 0.617957,-1.2069 0.309154,-0.3362 0.73457,-0.5754 1.189626,-0.61451 0.227528,-0.0196 0.459959,0.0109 0.672412,0.0947 0.212453,0.0838 0.404346,0.22128 0.546815,0.39976 0.131744,0.16504 0.219328,0.36112 0.287045,0.56115 0.06772,0.20002 0.116866,0.40584 0.180318,0.60726 0.08927,0.28337 0.206886,0.55781 0.350523,0.81788 z"
       id="path27" />
    <path
       style="fill:#0000ff;stroke-width:0.264583"
       d="m 21.966019,226.55378 c -7.21e-4,0.35794 0.09795,0.71557 0.28211,1.0225 0.18416,0.30694 0.453284,0.56229 0.769454,0.7301 0.125206,0.0665 0.258564,0.11969 0.398169,0.14425 0.139604,0.0246 0.28597,0.0196 0.419715,-0.0274 0.111013,-0.039 0.211364,-0.10623 0.293304,-0.19066 0.08194,-0.0844 0.145701,-0.18577 0.1911,-0.29431 0.0908,-0.21709 0.107572,-0.45916 0.08712,-0.69358 -0.04091,-0.46885 -0.224803,-0.92134 -0.220999,-1.39195 6.3e-4,-0.0779 0.0064,-0.15602 0,-0.23368 -0.01597,-0.19281 -0.112496,-0.37995 -0.267676,-0.49549 -0.07759,-0.0578 -0.16876,-0.0975 -0.264179,-0.11341 -0.09542,-0.0159 -0.194934,-0.008 -0.286028,0.0247 -0.03964,0.0142 -0.07819,0.033 -0.11989,0.0387 -0.02085,0.003 -0.04239,0.002 -0.06254,-0.004 -0.02015,-0.006 -0.03885,-0.018 -0.05125,-0.035 -0.01213,-0.0166 -0.01776,-0.0376 -0.01722,-0.0582 5.45e-4,-0.0206 0.007,-0.0408 0.01722,-0.0587 0.01586,-0.0279 0.04046,-0.0504 0.06831,-0.0663 0.02786,-0.016 0.05893,-0.0258 0.09047,-0.0319 0.06308,-0.0122 0.128095,-0.01 0.191736,-0.0186 0.10069,-0.014 0.195883,-0.0558 0.282272,-0.10939 0.08639,-0.0536 0.164849,-0.11881 0.243054,-0.18375 0.07821,-0.0649 0.1568,-0.13004 0.24339,-0.18328 0.08659,-0.0532 0.182057,-0.0946 0.282849,-0.10778 0.115983,-0.0152 0.23378,0.007 0.350522,0 0.167013,-0.0105 0.323838,-0.0812 0.473242,-0.15654 0.149403,-0.0754 0.298167,-0.15749 0.461482,-0.19398 0.154665,-0.0345 0.316537,-0.0267 0.47087,-0.0627 0.07717,-0.018 0.152712,-0.0474 0.215872,-0.0953 0.06316,-0.0478 0.113302,-0.11532 0.131141,-0.19252 0.01415,-0.0612 0.0074,-0.12667 -0.01629,-0.18487 -0.02373,-0.0582 -0.06408,-0.10911 -0.113621,-0.14778 -0.09908,-0.0773 -0.231404,-0.10366 -0.356488,-0.0913 -0.125085,0.0123 -0.244132,0.0603 -0.355319,0.11891 -0.111187,0.0586 -0.216257,0.12819 -0.326682,0.18823 -0.153053,0.0832 -0.31581,0.14777 -0.467362,0.23368 -0.339171,0.19228 -0.610563,0.48443 -0.934724,0.70105 -0.285052,0.19049 -0.605773,0.31931 -0.914663,0.46806 -0.30889,0.14876 -0.614232,0.3237 -0.837945,0.5835 -0.273271,0.31735 -0.40398,0.75304 -0.350521,1.16841 z"
       id="path28" />
    <path
       style="fill:#0000ff;stroke-width:0.264583"
       d="m 37.856329,240.92516 c 0.02658,0.0554 0.06897,0.10317 0.120864,0.13614 0.05189,0.033 0.113123,0.051 0.174597,0.0515 0.06147,5.1e-4 0.122995,-0.0166 0.175422,-0.0487 0.05243,-0.0321 0.09559,-0.0791 0.123087,-0.13413 0.02749,-0.055 0.03923,-0.11775 0.03345,-0.17895 -0.0058,-0.0612 -0.02903,-0.12066 -0.06632,-0.16954 -0.03729,-0.0489 -0.08849,-0.087 -0.145994,-0.10875 -0.05751,-0.0217 -0.121132,-0.027 -0.181427,-0.015 -0.09848,0.0196 -0.186385,0.0867 -0.231289,0.17646 -0.0449,0.0898 -0.04581,0.20037 -0.0024,0.2909 0.0396,0.0826 0.114071,0.14667 0.199974,0.17839 0.0859,0.0317 0.182249,0.0318 0.269881,0.005 0.08763,-0.0266 0.16652,-0.079 0.22893,-0.14606 0.06241,-0.067 0.108668,-0.14822 0.139641,-0.2344 0.06195,-0.17235 0.06286,-0.36076 0.04466,-0.543 -0.0182,-0.18224 -0.05471,-0.36258 -0.0652,-0.54542 -0.03591,-0.62585 0.235428,-1.23172 0.584203,-1.75261 0.07814,-0.1167 0.16046,-0.23068 0.23368,-0.35052 0.359553,-0.58849 0.484288,-1.29686 0.467362,-1.98629 -0.01444,-0.58817 -0.126145,-1.16905 -0.192978,-1.75359 -0.06683,-0.58455 -0.08744,-1.18648 0.07614,-1.75163 0.06013,-0.20773 0.144386,-0.40768 0.209624,-0.61386 0.06524,-0.20618 0.111621,-0.4224 0.09251,-0.63781 -0.0096,-0.1077 -0.03568,-0.2144 -0.08206,-0.31207 -0.04638,-0.0977 -0.113351,-0.18618 -0.198255,-0.25314 -0.0849,-0.0669 -0.187983,-0.11181 -0.295537,-0.12294 -0.107553,-0.0111 -0.219242,0.0123 -0.310481,0.0704 -0.09716,0.0618 -0.167965,0.16025 -0.207877,0.26825 -0.03991,0.10801 -0.05044,0.22525 -0.0436,0.3402 0.01368,0.22988 0.09448,0.45003 0.134633,0.6768 0.0808,0.45633 -0.0052,0.92679 -0.140599,1.37 -0.13539,0.44322 -0.319922,0.87071 -0.443604,1.31733 -0.148867,0.53756 -0.207841,1.09653 -0.350523,1.63577 -0.206269,0.77955 -0.588882,1.53044 -0.584202,2.33681 0.0028,0.47419 0.140558,0.93548 0.237852,1.39959 0.09729,0.46411 0.152778,0.95711 -0.0042,1.40458 -0.144447,0.41183 -0.457545,0.75077 -0.584203,1.16841 -0.08028,0.2647 -0.08028,0.55318 0,0.81788"
       id="path29" />
    <circle
       style="fill:#504416;stroke-width:0.264583"
       id="path1-39"
       cx="55.038597"
       cy="245.06535"
       r="12.651115" />
    <path
       style="fill:#ffdd55;stroke-width:0.264583"
       d="m 50.007744,255.06287 c 0.526034,0.0837 1.082771,-0.0448 1.518928,-0.35053 0.115172,-0.0807 0.223237,-0.17383 0.35052,-0.23368 0.145813,-0.0686 0.308539,-0.0897 0.467363,-0.11684 0.784847,-0.13418 1.541963,-0.43859 2.191748,-0.89878 0.649784,-0.46018 1.190455,-1.07668 1.547148,-1.78855 0.188033,-0.37527 0.32446,-0.77375 0.467362,-1.16841 0.04194,-0.11584 0.08455,-0.23163 0.11684,-0.35052 0.132798,-0.48889 0.08551,-1.01204 -0.04505,-1.50154 -0.130566,-0.48949 -0.341382,-0.95306 -0.539148,-1.41947 -0.06811,-0.16064 -0.135456,-0.32316 -0.23368,-0.46736 -0.135462,-0.19887 -0.325175,-0.35571 -0.529097,-0.48344 -0.203922,-0.12774 -0.423269,-0.22849 -0.639309,-0.33445 -1.11102,-0.5449 -2.14768,-1.23469 -3.271535,-1.75261 -0.776158,-0.35768 -1.592001,-0.63249 -2.336811,-1.05156 -0.122584,-0.069 -0.243675,-0.1422 -0.35052,-0.23368 -0.173266,-0.14835 -0.304747,-0.34172 -0.397273,-0.5502 -0.09253,-0.20849 -0.147265,-0.43215 -0.181376,-0.65768 -0.06822,-0.45106 -0.05541,-0.91136 -0.122394,-1.36261 -0.04952,-0.33356 -0.142634,-0.67063 -0.08464,-1.00283 0.02899,-0.16609 0.09791,-0.32831 0.215082,-0.44955 0.05859,-0.0606 0.128774,-0.1104 0.206559,-0.1429 0.07779,-0.0325 0.163194,-0.0475 0.247206,-0.0405 0.03907,0.003 0.07924,0.0111 0.11684,0 0.0206,-0.006 0.03939,-0.0177 0.05477,-0.0327 0.01539,-0.015 0.02743,-0.0332 0.03617,-0.0529 0.01748,-0.0392 0.02167,-0.0832 0.0206,-0.12611 -0.0011,-0.0429 -0.0072,-0.0856 -0.0093,-0.12851 -0.0021,-0.0429 -5.3e-5,-0.0868 0.01457,-0.12717 0.01736,-0.0479 0.05147,-0.0882 0.08984,-0.12177 0.03837,-0.0336 0.08134,-0.0614 0.122085,-0.0921 0.04074,-0.0307 0.07988,-0.0649 0.10734,-0.10781 0.01373,-0.0215 0.02441,-0.045 0.03019,-0.0699 0.0058,-0.0248 0.0066,-0.051 0.0011,-0.0758 -0.0079,-0.0354 -0.02818,-0.067 -0.05246,-0.0939 -0.02428,-0.0269 -0.05261,-0.0499 -0.07987,-0.0738 -0.02726,-0.0239 -0.05382,-0.0493 -0.07341,-0.0798 -0.01958,-0.0305 -0.03183,-0.0669 -0.02794,-0.103 0.0022,-0.0201 0.0092,-0.0394 0.01214,-0.0594 0.0015,-0.01 0.0019,-0.0202 1.83e-4,-0.0302 -0.0017,-0.01 -0.0057,-0.0196 -0.01232,-0.0273 -0.007,-0.008 -0.01681,-0.0136 -0.0272,-0.0163 -0.01039,-0.003 -0.02136,-0.003 -0.03194,-8.1e-4 -0.02114,0.004 -0.04037,0.0142 -0.05947,0.0239 -0.0191,0.01 -0.03914,0.0192 -0.06058,0.0203 -0.01071,5.4e-4 -0.02164,-0.001 -0.03138,-0.006 -0.0097,-0.004 -0.01823,-0.012 -0.02312,-0.0215 -0.0045,-0.009 -0.0058,-0.0191 -0.0053,-0.029 5.3e-4,-0.01 0.0028,-0.0197 0.0051,-0.0294 0.0023,-0.01 0.0046,-0.0194 0.0052,-0.0294 6.05e-4,-0.01 -5.77e-4,-0.0202 -0.005,-0.0291 -0.0047,-0.01 -0.01302,-0.0172 -0.02262,-0.0219 -0.0096,-0.005 -0.02043,-0.007 -0.03112,-0.006 -0.02137,5.3e-4 -0.04159,0.009 -0.06076,0.0188 -0.01917,0.009 -0.03829,0.0198 -0.05929,0.0239 -0.0105,0.002 -0.0214,0.002 -0.03186,1.7e-4 -0.01046,-0.002 -0.02046,-0.007 -0.02804,-0.0146 -0.0073,-0.007 -0.01213,-0.0168 -0.0146,-0.0267 -0.0025,-0.01 -0.0027,-0.0204 -0.0014,-0.0306 0.0024,-0.0204 0.01024,-0.0397 0.01605,-0.0595 0.02025,-0.0687 0.01579,-0.14394 -0.0098,-0.21082 -0.0256,-0.0669 -0.07184,-0.12527 -0.129407,-0.16786 -0.05757,-0.0426 -0.126155,-0.0696 -0.19693,-0.0805 -0.07077,-0.0109 -0.143653,-0.006 -0.213093,0.0115 -0.13888,0.035 -0.261622,0.11915 -0.361997,0.22131 -0.100375,0.10217 -0.180388,0.22227 -0.257162,0.34318 -0.104718,0.16491 -0.206605,0.33527 -0.35052,0.46737 -0.09542,0.0876 -0.207174,0.15622 -0.300726,0.24581 -0.04678,0.0448 -0.089,0.095 -0.119527,0.15215 -0.03052,0.0571 -0.04901,0.1215 -0.04711,0.18624 0.0012,0.0394 0.0098,0.0783 0.01377,0.11755 0.004,0.0393 0.0031,0.0804 -0.01377,0.11613 -0.01185,0.0251 -0.03097,0.0462 -0.05182,0.0646 -0.02086,0.0184 -0.04365,0.0344 -0.06502,0.0522 -0.104478,0.087 -0.171001,0.21287 -0.207822,0.34374 -0.03682,0.13088 -0.04617,0.26773 -0.05279,0.40352 -0.0066,0.13579 -0.01082,0.27243 -0.03782,0.40567 -0.02701,0.13325 -0.07847,0.2645 -0.168923,0.366 -0.03665,0.0411 -0.07908,0.0767 -0.11684,0.11684 -0.09062,0.0963 -0.152578,0.21697 -0.192024,0.34315 -0.03945,0.12618 -0.05723,0.25816 -0.06742,0.38997 -0.02038,0.26362 -0.01175,0.53357 -0.09108,0.7858 -0.06299,0.20028 -0.179317,0.38142 -0.23368,0.58421 -0.07105,0.26503 -0.03131,0.54528 0,0.81788 0.09017,0.78517 0.106359,1.57851 0.226138,2.35971 0.119778,0.78121 0.351973,1.56424 0.825427,2.19707 0.257456,0.34412 0.585595,0.63929 0.96958,0.83232 0.383986,0.19302 0.825013,0.28056 1.250388,0.21925 0.07824,-0.0113 0.155924,-0.0275 0.234801,-0.0327 0.07888,-0.005 0.160186,9.4e-4 0.232562,0.0327 0.08216,0.0361 0.146706,0.10204 0.218538,0.15583 0.03592,0.0269 0.07434,0.0511 0.116523,0.0664 0.04219,0.0153 0.08852,0.0213 0.132302,0.0114 0.01996,-0.004 0.03921,-0.0122 0.05949,-0.0148 0.01014,-0.001 0.02053,-0.001 0.03051,8.2e-4 0.01,0.002 0.01955,0.007 0.02684,0.014 0.0073,0.007 0.01211,0.0167 0.01447,0.0267 0.0024,0.01 0.0024,0.0204 0.0011,0.0306 -0.0026,0.0204 -0.01049,0.0396 -0.01555,0.0595 -0.01709,0.0673 -7.06e-4,0.14056 0.03601,0.1995 0.03671,0.0589 0.0923,0.10445 0.15333,0.13759 0.122056,0.0663 0.263609,0.0849 0.394864,0.13027 0.257667,0.0891 0.471805,0.28294 0.61434,0.51536 0.142536,0.23242 0.217339,0.5016 0.248453,0.77247 0.06223,0.54172 -0.04417,1.08789 -0.04491,1.63318 -4.75e-4,0.35087 0.04277,0.70332 0,1.05157 -0.07475,0.6086 -0.425115,1.17794 -0.934726,1.51893 z"
       id="path30" />
    <path
       style="fill:#ffdd55;stroke-width:0.264583"
       d="m 60.523392,241.15884 c 0.0452,-0.0421 0.102869,-0.0707 0.163767,-0.0812 0.0609,-0.0105 0.124798,-0.003 0.18146,0.0219 0.05666,0.0246 0.105873,0.0661 0.139748,0.1178 0.03388,0.0517 0.05229,0.11335 0.05229,0.17514 0,0.0618 -0.01841,0.12346 -0.05229,0.17514 -0.03388,0.0517 -0.08309,0.0932 -0.139748,0.1178 -0.05666,0.0246 -0.120562,0.0324 -0.18146,0.0219 -0.0609,-0.0105 -0.118568,-0.039 -0.163767,-0.0812 -0.06391,-0.0596 -0.101638,-0.14631 -0.101638,-0.23368 0,-0.0874 0.03772,-0.17411 0.101638,-0.23368 0.06284,-0.0586 0.149129,-0.09 0.235029,-0.0902 0.0859,-1.7e-4 0.170853,0.03 0.240289,0.0806 0.06944,0.0506 0.12356,0.1209 0.15911,0.1991 0.03555,0.0782 0.05289,0.16407 0.05537,0.24994 0.005,0.17173 -0.04842,0.34017 -0.117883,0.4973 -0.06946,0.15713 -0.155437,0.3067 -0.221397,0.46533 -0.151274,0.36382 -0.192763,0.76703 -0.161456,1.1598 0.03131,0.39277 0.133161,0.77688 0.259635,1.15005 0.252948,0.74632 0.608032,1.46686 0.719704,2.24693 0.128177,0.89537 -0.07337,1.80036 -0.234995,2.6903 -0.161628,0.88994 -0.281282,1.82514 0.0013,2.68436 0.07102,0.21594 0.16639,0.42303 0.244402,0.63654 0.07801,0.2135 0.139088,0.43688 0.137282,0.66419 -0.0018,0.22731 -0.07202,0.46052 -0.228129,0.62575 -0.07805,0.0826 -0.176551,0.1467 -0.285374,0.17949 -0.108822,0.0328 -0.227875,0.0336 -0.335544,-0.003 -0.01953,-0.007 -0.03892,-0.0144 -0.05942,-0.0167 -0.01025,-0.001 -0.02073,-7.7e-4 -0.03071,0.002 -0.01,0.003 -0.01944,0.008 -0.02671,0.0148 -0.0073,0.007 -0.01215,0.0168 -0.01471,0.0268 -0.0026,0.01 -0.0029,0.0204 -0.0017,0.0307 0.0022,0.0205 0.01003,0.0398 0.01646,0.0594 0.04568,0.13912 0.02179,0.29563 -0.04716,0.4248 -0.06895,0.12918 -0.179761,0.23261 -0.303938,0.3102 -0.248354,0.15518 -0.544387,0.21037 -0.817304,0.31657 -0.677641,0.26368 -1.187377,0.82965 -1.635768,1.40208 -0.06835,0.0873 -0.138279,0.17725 -0.233682,0.23369 -0.103326,0.0611 -0.228198,0.0771 -0.347941,0.0685 -0.119742,-0.009 -0.236445,-0.0402 -0.353102,-0.0685 -0.08663,-0.0211 -0.174175,-0.0406 -0.256341,-0.0751 -0.08217,-0.0346 -0.159685,-0.0857 -0.211022,-0.15855 -0.03472,-0.0493 -0.05638,-0.10711 -0.06709,-0.16645 -0.01071,-0.0593 -0.01073,-0.12025 -0.0046,-0.18023 0.01218,-0.11998 0.0484,-0.23605 0.07173,-0.35436 0.09065,-0.45962 -0.01514,-0.93385 0,-1.40208 0.02891,-0.89405 0.508126,-1.73334 1.168406,-2.33682 0.08143,-0.0744 0.166209,-0.14641 0.233682,-0.23368 0.113814,-0.14721 0.171968,-0.32952 0.214275,-0.51072 0.04231,-0.18121 0.07123,-0.36649 0.136245,-0.54084 0.09136,-0.245 0.250635,-0.45939 0.350523,-0.70104 0.12022,-0.29084 0.150277,-0.61127 0.148577,-0.92597 -0.0017,-0.31471 -0.03373,-0.62878 -0.03174,-0.94348 0.002,-0.31188 0.0373,-0.62508 0,-0.93473 -0.0591,-0.49058 -0.295414,-0.93883 -0.467363,-1.40208 -0.09877,-0.26608 -0.176967,-0.53979 -0.23368,-0.81789 0.0227,-0.23852 -0.01801,-0.48278 -0.11684,-0.70104 -0.04358,-0.0962 -0.09804,-0.18717 -0.143877,-0.28235 -0.04583,-0.0952 -0.08338,-0.1964 -0.0898,-0.30185 -0.0047,-0.0778 0.0076,-0.15611 0,-0.23369 -0.0086,-0.0877 -0.04241,-0.17143 -0.08593,-0.24811 -0.04352,-0.0767 -0.09676,-0.14732 -0.14775,-0.21925 -0.65325,-0.92153 -0.935225,-2.04943 -1.168406,-3.15469 -0.115117,-0.54564 -0.221612,-1.09322 -0.350522,-1.63577 -0.09408,-0.39595 -0.200407,-0.79012 -0.35052,-1.1684 -0.171084,-0.43113 -0.399948,-0.84496 -0.4862,-1.3007 -0.04313,-0.22787 -0.04904,-0.46535 0.0077,-0.69023 0.0567,-0.22487 0.179058,-0.43664 0.3617,-0.57956 0.0219,-0.0171 0.04463,-0.0333 0.06532,-0.0519 0.02069,-0.0186 0.03946,-0.0399 0.05152,-0.065 0.01752,-0.0364 0.01981,-0.0785 0.01439,-0.11855 -0.0054,-0.04 -0.01812,-0.0786 -0.0295,-0.11736 -0.01138,-0.0387 -0.02157,-0.0784 -0.02175,-0.11876 -1.79e-4,-0.0404 0.01056,-0.0821 0.03686,-0.1127 0.01821,-0.0212 0.04263,-0.0359 0.06499,-0.0527 0.01118,-0.008 0.02197,-0.0174 0.03114,-0.028 0.0092,-0.0106 0.01671,-0.0227 0.02071,-0.0361 0.0059,-0.0199 0.0038,-0.0414 -0.0014,-0.0615 -0.0052,-0.0201 -0.0135,-0.0393 -0.01993,-0.059 -0.0064,-0.0197 -0.0111,-0.0405 -0.0088,-0.0612 0.0011,-0.0103 0.0041,-0.0205 0.0091,-0.0296 0.005,-0.009 0.01222,-0.017 0.02108,-0.0224 0.0085,-0.005 0.01828,-0.008 0.02816,-0.009 0.0099,-9.9e-4 0.01986,-2.9e-4 0.0297,0.001 0.01967,0.003 0.03912,0.008 0.05898,0.008 0.02782,-3.5e-4 0.05496,-0.0121 0.07581,-0.0305 0.02086,-0.0184 0.03561,-0.0432 0.0441,-0.0697 0.01698,-0.053 0.0093,-0.11071 -0.0042,-0.16469 -0.01351,-0.054 -0.03273,-0.10687 -0.03873,-0.16218 -0.003,-0.0277 -0.0026,-0.0559 0.0035,-0.083 0.0061,-0.0272 0.01803,-0.0532 0.03642,-0.0741 0.02502,-0.0284 0.06045,-0.0457 0.0966,-0.057 0.03615,-0.0112 0.07374,-0.0171 0.110316,-0.0269 0.03657,-0.01 0.07295,-0.024 0.101212,-0.0492 0.01413,-0.0126 0.02603,-0.0279 0.03374,-0.0452 0.0077,-0.0173 0.01112,-0.0366 0.0087,-0.0554 -0.0027,-0.0206 -0.01227,-0.0398 -0.01629,-0.0602 -0.002,-0.0102 -0.0026,-0.0208 -2.17e-4,-0.031 0.0024,-0.0101 0.008,-0.0197 0.01651,-0.0257 0.0082,-0.006 0.01864,-0.008 0.02868,-0.007 0.01003,3.9e-4 0.01984,0.003 0.02951,0.006 0.0097,0.003 0.01937,0.006 0.02937,0.007 0.01,9.6e-4 0.02045,-1.1e-4 0.02928,-0.005 0.0095,-0.005 0.0165,-0.0143 0.02012,-0.0244 0.0036,-0.0102 0.004,-0.0213 0.0024,-0.0319 -0.0032,-0.0213 -0.01409,-0.0406 -0.02257,-0.0605 -0.03504,-0.082 -0.02855,-0.17866 0.0085,-0.25982 0.03702,-0.0812 0.102519,-0.14736 0.178387,-0.19428 0.151736,-0.0939 0.336738,-0.11156 0.514182,-0.13011 0.205812,-0.0215 0.413402,-0.0473 0.618999,-0.0238 0.205596,0.0235 0.412844,0.10203 0.549406,0.2575 0.11561,0.13162 0.170101,0.30413 0.233683,0.46737 0.338234,0.86837 1.023148,1.5961 1.869448,1.98629 0.0021,0.21461 0.08718,0.42736 0.23368,0.5842 0.0376,0.0403 0.07896,0.0769 0.116842,0.11684 0.196793,0.20773 0.288975,0.49729 0.308635,0.78276 0.01966,0.28547 -0.02694,0.57092 -0.07496,0.85301 -0.125088,0.73485 -0.26095,1.48861 -0.11684,2.21997 0.01151,0.0584 0.02482,0.11676 0.02858,0.17619 0.0038,0.0594 -0.0026,0.12077 -0.02858,0.17433 -0.02452,0.0505 -0.06637,0.0923 -0.11684,0.11684 z"
       id="path31" />
    <path
       style="fill:#ffdd55;stroke-width:0.264583"
       d="m 45.334123,250.03872 v 0.46736 c 0,0.19482 -0.01861,0.39028 0,0.58421 0.02783,0.29004 0.16633,0.56096 0.349254,0.78775 0.182924,0.2268 0.409363,0.41413 0.638029,0.59471 0.228667,0.18058 0.462275,0.357 0.664387,0.56688 0.202113,0.20987 0.373377,0.45728 0.451461,0.73799 0.01597,0.0574 0.02801,0.11623 0.02997,0.17577 0.002,0.0595 -0.0064,0.12002 -0.02997,0.17475 -0.04198,0.0976 -0.13044,0.17074 -0.229672,0.20876 -0.09923,0.038 -0.208496,0.0436 -0.314168,0.0324 -0.211343,-0.0225 -0.412536,-0.10964 -0.624566,-0.12429 -0.114186,-0.008 -0.230502,0.005 -0.342249,-0.0194 -0.05587,-0.0124 -0.110343,-0.0346 -0.154717,-0.0708 -0.04437,-0.0361 -0.07804,-0.087 -0.08724,-0.1435 -0.0063,-0.0386 -0.0012,-0.0781 0.003,-0.117 0.0041,-0.0389 0.0072,-0.0789 -0.003,-0.11668 -0.0094,-0.0348 -0.02958,-0.0658 -0.05332,-0.0929 -0.02374,-0.0271 -0.05111,-0.0507 -0.07751,-0.0752 -0.02639,-0.0245 -0.05209,-0.0503 -0.07156,-0.0806 -0.01947,-0.0303 -0.0325,-0.0657 -0.0313,-0.10173 0.0014,-0.0416 0.02125,-0.0801 0.03061,-0.12069 0.0047,-0.0203 0.0067,-0.0415 0.0024,-0.0619 -0.0043,-0.0204 -0.01551,-0.0398 -0.03301,-0.0511 -0.01685,-0.0109 -0.03792,-0.0133 -0.05788,-0.0115 -0.01996,0.002 -0.03935,0.007 -0.05896,0.0115 -0.08223,0.0173 -0.169293,0.008 -0.247522,-0.0229 -0.07823,-0.0307 -0.147674,-0.0821 -0.20318,-0.14523 -0.111012,-0.1262 -0.164208,-0.29488 -0.179292,-0.46228 -0.03017,-0.3348 0.08026,-0.67101 0.04579,-1.00539 -0.02434,-0.23614 -0.120408,-0.46368 -0.11684,-0.70104 0.0029,-0.19476 0.07597,-0.38773 0.202727,-0.53562 0.126763,-0.14789 0.306294,-0.24959 0.498315,-0.28227 z"
       id="path32" />
    <circle
       style="fill:#c83737;stroke-width:0.264583"
       id="path1-6"
       cx="50.221947"
       cy="219.81987"
       r="12.651115" />
    <path
       style="fill:#008080;stroke-width:0.264583"
       d="m 42.997313,212.41607 c -0.268839,0.32555 -0.420073,0.7462 -0.420073,1.1684 0,0.42221 0.151234,0.84286 0.420073,1.16841 0.271834,0.32918 0.658803,0.55745 1.074474,0.65477 0.415671,0.0973 0.857877,0.0661 1.262336,-0.0706 0.233746,-0.079 0.457744,-0.19273 0.701043,-0.23368 0.307791,-0.0518 0.623054,0.0167 0.934725,0 0.40054,-0.0215 0.778392,-0.18194 1.165769,-0.28603 0.193688,-0.052 0.392596,-0.0904 0.593152,-0.0895 0.200557,8.6e-4 0.403694,0.0424 0.57789,0.14184 0.171866,0.0981 0.309145,0.24834 0.419043,0.4129 0.109899,0.16455 0.194613,0.34429 0.281999,0.52183 0.333851,0.67826 0.718834,1.35368 0.817883,2.10313 0.03461,0.2619 0.03324,0.52759 0.06886,0.78935 0.03562,0.26176 0.112546,0.52663 0.281667,0.72957 0.125468,0.15056 0.294378,0.25841 0.467362,0.35053 0.436586,0.2325 0.915323,0.37945 1.402085,0.46736 0.656861,0.11863 1.337715,0.13068 1.989156,-0.0148 0.651442,-0.14548 1.272686,-0.45308 1.749743,-0.91994 0.417862,-0.40893 0.721008,-0.94234 0.817883,-1.51892 0.05828,-0.34689 0.04238,-0.70238 0,-1.05157 -0.07145,-0.58868 -0.220322,-1.17435 -0.504621,-1.69477 -0.2843,-0.52041 -0.711528,-0.97352 -1.247987,-1.22624 -0.157855,-0.0744 -0.32553,-0.13204 -0.467363,-0.23368 -0.134606,-0.0965 -0.239314,-0.22781 -0.35052,-0.35052 -0.540556,-0.59647 -1.298738,-1.02112 -2.103131,-1.05157 -0.116769,-0.004 -0.233671,-7e-4 -0.350522,0 -0.71446,0.004 -1.431863,-0.10583 -2.103128,-0.35052 -0.713306,-0.26002 -1.362547,-0.66589 -2.039381,-1.00985 -0.676834,-0.34397 -1.407682,-0.63196 -2.166878,-0.62592 -0.273074,0.002 -0.548113,0.0424 -0.817885,0 -0.05871,-0.009 -0.116953,-0.0223 -0.176238,-0.0266 -0.05928,-0.004 -0.120676,9.1e-4 -0.174282,0.0266 -0.05005,0.024 -0.09035,0.0643 -0.126053,0.10679 -0.0357,0.0425 -0.06802,0.088 -0.107629,0.12689 -0.0758,0.0744 -0.174875,0.12081 -0.276033,0.15312 -0.101158,0.0323 -0.20594,0.0518 -0.30817,0.0806 -0.375708,0.10564 -0.713923,0.34005 -0.944718,0.65477 -0.230795,0.31472 -0.352706,0.70775 -0.340527,1.09784 z"
       id="path33" />
    <path
       style="fill:#008080;stroke-width:0.264583"
       d="m 40.543662,217.44022 c -0.365733,1.29035 -0.365733,2.68222 0,3.97257 0.06719,0.23706 0.146394,0.47063 0.23368,0.70105 0.292961,0.77337 0.679918,1.5214 0.817885,2.33681 0.02085,0.12322 0.03594,0.24774 0.06808,0.3685 0.03214,0.12077 0.08258,0.23912 0.165597,0.33254 0.07331,0.0825 0.170045,0.14351 0.233683,0.23368 0.06091,0.0863 0.08636,0.19189 0.112246,0.2943 0.02589,0.10242 0.05507,0.20772 0.121434,0.2899 0.03472,0.043 0.07825,0.0778 0.120397,0.11357 0.04215,0.0357 0.08382,0.0734 0.113283,0.12012 0.03296,0.0523 0.04895,0.11329 0.06291,0.17353 0.01395,0.0602 0.02658,0.12154 0.05394,0.17699 0.0368,0.0746 0.09807,0.13413 0.161977,0.18738 0.0639,0.0532 0.131968,0.10216 0.188543,0.16314 0.09633,0.10383 0.154025,0.23655 0.21659,0.36361 0.06256,0.12707 0.135391,0.25529 0.250772,0.33743 0.07108,0.0506 0.154259,0.0807 0.23368,0.11684 0.330765,0.15046 0.599096,0.40684 0.886215,0.62957 0.143559,0.11136 0.293899,0.21558 0.458127,0.2933 0.164228,0.0777 0.34342,0.12844 0.525109,0.1287 0.117078,1.7e-4 0.235232,-0.0204 0.35052,0 0.08629,0.0153 0.167085,0.0529 0.243007,0.0967 0.07592,0.0438 0.148047,0.0939 0.224355,0.13698 0.277972,0.15694 0.600576,0.21455 0.918282,0.24555 0.317706,0.031 0.63903,0.0381 0.951166,0.10497 0.329732,0.0706 0.645757,0.20723 0.981323,0.24049 0.167783,0.0166 0.340347,0.006 0.499203,-0.0501 0.158857,-0.0565 0.303348,-0.16195 0.388922,-0.30722 0.073,-0.12393 0.100119,-0.26919 0.116836,-0.41205 0.01672,-0.14286 0.02448,-0.28782 0.06372,-0.4262 0.01962,-0.0692 0.04718,-0.13649 0.08612,-0.19695 0.03894,-0.0605 0.08953,-0.11401 0.150501,-0.15215 0.06097,-0.0381 0.132566,-0.0604 0.204459,-0.0586 0.07189,0.002 0.143738,0.0284 0.196248,0.0776 0.04105,0.0384 0.06895,0.0884 0.102464,0.13357 0.01676,0.0226 0.03514,0.0441 0.05685,0.062 0.02171,0.0179 0.04695,0.0319 0.07437,0.0381 0.03836,0.009 0.07825,0.002 0.11715,-0.004 0.0389,-0.006 0.07981,-0.01 0.11653,0.004 0.02613,0.01 0.04818,0.0286 0.06666,0.0496 0.01848,0.021 0.0338,0.0445 0.05018,0.0672 0.116731,0.16158 0.288917,0.27898 0.47666,0.34596 0.187743,0.067 0.390554,0.0854 0.589424,0.0718 0.397739,-0.0271 0.774738,-0.17774 1.153884,-0.30095 0.865188,-0.28115 1.797949,-0.42499 2.687333,-0.23369 0.07789,0.0168 0.155667,0.0361 0.235158,0.0415 0.07949,0.005 0.161977,-0.004 0.232205,-0.0415 0.04886,-0.0262 0.08986,-0.065 0.126628,-0.10644 0.03677,-0.0415 0.06992,-0.0861 0.107052,-0.12724 0.134755,-0.14938 0.316964,-0.24802 0.50394,-0.32227 0.186976,-0.0743 0.381961,-0.12694 0.568843,-0.20143 0.186882,-0.0745 0.368888,-0.17362 0.503076,-0.32352 0.06709,-0.0749 0.121328,-0.16209 0.153638,-0.25735 0.03231,-0.0953 0.04223,-0.19875 0.02311,-0.29751 -0.0038,-0.0196 -0.0087,-0.039 -0.01019,-0.0588 -0.0015,-0.0199 6.43e-4,-0.0405 0.01019,-0.058 0.01084,-0.0198 0.03035,-0.0338 0.0513,-0.0423 0.02095,-0.009 0.0435,-0.0121 0.06582,-0.0157 0.02232,-0.004 0.04486,-0.007 0.06575,-0.016 0.02088,-0.009 0.04026,-0.0229 0.05082,-0.0428 0.0093,-0.0176 0.01107,-0.0382 0.0095,-0.058 -0.0016,-0.0198 -0.0064,-0.0392 -0.0095,-0.0588 -0.01124,-0.0704 -0.0011,-0.14356 0.02508,-0.20989 0.02618,-0.0663 0.06802,-0.12595 0.118638,-0.17618 0.101225,-0.10046 0.234683,-0.16212 0.370159,-0.20667 0.135476,-0.0446 0.275663,-0.074 0.410232,-0.12122 0.134569,-0.0472 0.266038,-0.11449 0.361137,-0.22077 0.09377,-0.10479 0.146182,-0.24043 0.23368,-0.35052 0.06884,-0.0866 0.157393,-0.15497 0.242554,-0.2256 0.08516,-0.0706 0.16922,-0.1461 0.224808,-0.24176 0.07182,-0.1236 0.09016,-0.26995 0.10962,-0.41157 0.01946,-0.14162 0.04351,-0.28822 0.12406,-0.40631 0.06747,-0.0989 0.168813,-0.16905 0.249181,-0.2578 0.04018,-0.0444 0.07551,-0.0942 0.09602,-0.15044 0.0205,-0.0563 0.02529,-0.11953 0.0053,-0.17597 -0.0071,-0.02 -0.01722,-0.0392 -0.02043,-0.0602 -0.0016,-0.0105 -0.0014,-0.0214 0.0018,-0.0315 0.0032,-0.0101 0.0096,-0.0194 0.01861,-0.0251 0.0085,-0.005 0.01873,-0.007 0.02872,-0.007 0.01,2.9e-4 0.01979,0.003 0.02947,0.005 0.0097,0.002 0.01938,0.005 0.02933,0.006 0.0099,9.2e-4 0.02026,8e-5 0.02932,-0.004 0.01016,-0.005 0.01819,-0.0135 0.02283,-0.0237 0.0046,-0.0102 0.006,-0.0217 0.0048,-0.0328 -0.0023,-0.0223 -0.01436,-0.0423 -0.02768,-0.0603 -0.06419,-0.0868 -0.163121,-0.14266 -0.266055,-0.17526 -0.102934,-0.0326 -0.21111,-0.0442 -0.318148,-0.0584 -0.156041,-0.0207 -0.311609,-0.0473 -0.468809,-0.0554 -0.157201,-0.008 -0.317503,0.003 -0.465913,0.0554 -0.09938,0.0351 -0.191317,0.088 -0.28569,0.13498 -0.09437,0.047 -0.193585,0.0887 -0.298513,0.0987 -0.07788,0.007 -0.156196,-0.003 -0.234119,-0.01 -0.07792,-0.007 -0.157689,-0.0105 -0.233244,0.01 -0.08465,0.0227 -0.158354,0.0738 -0.231339,0.12235 -0.07299,0.0485 -0.149648,0.0964 -0.236023,0.11133 -0.05775,0.01 -0.116912,0.005 -0.175287,-5.8e-4 -0.05838,-0.005 -0.117622,-0.0101 -0.175236,5.8e-4 -0.08622,0.0161 -0.161856,0.0658 -0.234469,0.11496 -0.07261,0.0492 -0.147218,0.1 -0.232891,0.11872 -0.05724,0.0125 -0.116622,0.01 -0.175049,0.006 -0.05843,-0.004 -0.117103,-0.0107 -0.175473,-0.006 -0.08791,0.008 -0.171905,0.0412 -0.248655,0.0848 -0.07675,0.0436 -0.147207,0.0972 -0.218708,0.14892 -1.055526,0.76357 -2.372378,1.12222 -3.675057,1.13653 -1.302678,0.0143 -2.593578,-0.30112 -3.802737,-0.786 -0.873684,-0.35035 -1.709329,-0.78832 -2.570491,-1.16841 -0.07975,-0.0352 -0.160094,-0.0701 -0.23368,-0.11684 -0.194885,-0.12379 -0.330285,-0.32299 -0.430737,-0.53087 -0.100453,-0.20787 -0.171306,-0.42897 -0.270306,-0.63754 -0.196512,-0.41401 -0.499516,-0.76912 -0.831233,-1.08532 -0.331718,-0.3162 -0.694463,-0.5979 -1.038217,-0.90097 -0.723946,-0.63827 -1.360477,-1.36838 -1.986288,-2.10312 -0.207011,-0.24304 -0.424648,-0.48736 -0.706478,-0.63734 -0.140915,-0.075 -0.294451,-0.12559 -0.451869,-0.15206 -0.157418,-0.0265 -0.317793,-0.0285 -0.477421,-0.0285 h -0.584203 c -0.03895,0 -0.07792,-0.001 -0.11684,0 -0.108082,0.004 -0.21493,0.0376 -0.30569,0.0965 -0.09076,0.0588 -0.165178,0.14258 -0.21291,0.23963 -0.04773,0.097 -0.06865,0.20712 -0.05983,0.31492 0.0088,0.10779 0.04733,0.213 0.110191,0.30101 0.06286,0.088 0.149899,0.15857 0.249007,0.20187 0.09911,0.0433 0.210016,0.0592 0.317301,0.0455 0.107286,-0.0137 0.210653,-0.0569 0.295731,-0.12368 0.08508,-0.0668 0.15163,-0.15692 0.190405,-0.25788 z"
       id="path34" />
    <path
       style="fill:#008080;stroke-width:0.264583"
       d="m 52.695077,209.96242 c -0.03315,0.0879 -0.109348,0.15848 -0.199586,0.18476 -0.09024,0.0263 -0.19239,0.008 -0.267581,-0.0487 -0.07519,-0.0564 -0.121643,-0.14926 -0.12168,-0.24324 -3.8e-5,-0.094 0.04634,-0.18689 0.121485,-0.24334 0.0522,-0.0392 0.117302,-0.061 0.182593,-0.061 0.06529,-2e-5 0.130409,0.0217 0.182642,0.0608 0.05223,0.0392 0.09129,0.0956 0.109547,0.1583 0.01826,0.0627 0.01561,0.13128 -0.0074,0.19237 -0.02902,0.077 -0.08975,0.14044 -0.163032,0.17785 -0.07328,0.0374 -0.15831,0.0495 -0.239995,0.0396 -0.08168,-0.01 -0.160051,-0.0411 -0.229486,-0.0852 -0.06943,-0.0441 -0.130206,-0.10102 -0.183501,-0.1637 -0.10659,-0.12537 -0.183141,-0.27282 -0.268211,-0.41369 -0.08507,-0.14086 -0.182438,-0.27926 -0.317862,-0.37275 -0.133313,-0.092 -0.294631,-0.13426 -0.45458,-0.15991 -0.159949,-0.0257 -0.322503,-0.0365 -0.480143,-0.0738 -0.359025,-0.085 -0.670448,-0.30082 -0.979632,-0.50212 -0.309184,-0.2013 -0.639439,-0.39704 -1.006659,-0.43261 -0.100385,-0.01 -0.201718,-0.007 -0.301943,-0.0184 -0.100225,-0.0112 -0.201729,-0.0377 -0.282259,-0.0984 -0.04406,-0.0332 -0.08029,-0.0755 -0.11684,-0.11684 -0.09672,-0.10942 -0.198723,-0.21518 -0.315466,-0.30292 -0.116742,-0.0877 -0.249207,-0.1573 -0.392055,-0.18767 -0.142848,-0.0304 -0.296676,-0.0196 -0.427647,0.045 -0.06549,0.0323 -0.12469,0.0777 -0.17125,0.134 -0.04656,0.0563 -0.08029,0.12336 -0.09567,0.19474 -0.0097,0.0451 -0.01223,0.092 -0.02697,0.13571 -0.0074,0.0219 -0.01788,0.0429 -0.03288,0.0605 -0.015,0.0175 -0.0347,0.0315 -0.05699,0.0375 -0.01888,0.005 -0.03881,0.004 -0.0583,0.003 -0.01949,-0.002 -0.03903,-0.004 -0.05854,-0.003 -0.02479,0.002 -0.04901,0.0101 -0.07004,0.0234 -0.02103,0.0132 -0.03889,0.0314 -0.05242,0.0522 -0.02706,0.0417 -0.03623,0.0936 -0.03028,0.14298 0.0059,0.0494 0.02628,0.0963 0.05385,0.13763 0.02757,0.0414 0.06226,0.0775 0.09889,0.11117 0.163534,0.15011 0.367771,0.25175 0.58134,0.31228 0.213568,0.0605 0.436756,0.0813 0.658732,0.0827 0.443952,0.003 0.887201,-0.0701 1.330421,-0.0445 0.563228,0.0326 1.105743,0.22348 1.620509,0.45436 0.514766,0.23088 1.010769,0.50351 1.534184,0.71404 0.597808,0.24045 1.228815,0.39821 1.869448,0.46736"
       id="path35"
       transform="translate(-0.11684053,0.35052158)" />
    <path
       style="fill:#008080;stroke-width:0.264583"
       d="m 59.588666,211.24767 c -0.09177,0.0918 -0.14519,0.22074 -0.145189,0.35052 0,0.12978 0.05342,0.25876 0.145192,0.35052 0.09177,0.0918 0.220745,0.14519 0.350522,0.14519 0.129777,0 0.258755,-0.0534 0.350521,-0.14519 0.09177,-0.0918 0.14519,-0.22074 0.145189,-0.35052 0,-0.12978 -0.05343,-0.25876 -0.145192,-0.35052 -0.09177,-0.0918 -0.220745,-0.14519 -0.350522,-0.14519 -0.129777,0 -0.258755,0.0534 -0.350521,0.14519 l 0.817886,0.93472 c 0.03885,-0.003 0.07799,-0.003 0.11684,0 0.148703,0.0126 0.291803,0.0742 0.407963,0.16785 0.11616,0.0937 0.205706,0.21862 0.264085,0.35596 0.116756,0.27469 0.107445,0.59031 0.02899,0.87828 -0.01059,0.0389 -0.02245,0.0778 -0.02569,0.11794 -0.0032,0.0402 0.0029,0.0825 0.02569,0.11574 0.01564,0.0229 0.03804,0.04 0.05971,0.0573 0.02166,0.0173 0.04345,0.0355 0.05713,0.0596 0.0098,0.0172 0.01501,0.0368 0.01694,0.0565 0.0019,0.0197 6.67e-4,0.0397 -0.0019,0.0593 -0.0051,0.0393 -0.01519,0.0782 -0.01508,0.11783 1.24e-4,0.0442 0.01307,0.0876 0.0323,0.12736 0.01922,0.0398 0.0446,0.0762 0.07087,0.11172 0.05253,0.071 0.110591,0.14222 0.130519,0.22828 0.01323,0.0571 0.0085,0.11675 0.0028,0.17513 -0.0057,0.0584 -0.01235,0.11753 -0.0028,0.1754 0.01426,0.0865 0.0633,0.16289 0.112498,0.2355 0.0492,0.0726 0.100727,0.14656 0.121182,0.23186 0.01367,0.057 0.01273,0.11647 0.0088,0.17496 -0.004,0.0585 -0.01084,0.11697 -0.0088,0.17556 0.0059,0.16761 0.08381,0.32333 0.163618,0.47083 0.0798,0.14751 0.164768,0.29765 0.186905,0.46389 0.01544,0.11595 -6.81e-4,0.23355 0,0.35052 0.0016,0.28053 0.09931,0.55034 0.190826,0.81553 0.09151,0.26518 0.179154,0.54038 0.159694,0.82024 -0.0041,0.0587 -0.01287,0.117 -0.01624,0.17573 -0.0034,0.0587 -0.0012,0.11859 0.01624,0.17479 0.0258,0.0833 0.0831,0.15323 0.116842,0.23368 0.03446,0.0822 0.04331,0.17325 0.03836,0.26222 -0.0049,0.089 -0.02318,0.17658 -0.04114,0.26385 -0.01795,0.0873 -0.03573,0.17502 -0.03973,0.26403 -0.004,0.089 0.0063,0.18005 0.04251,0.26147 0.04548,0.1023 0.128943,0.18389 0.175605,0.28566 0.02333,0.0509 0.03707,0.10757 0.02948,0.16303 -0.0038,0.0277 -0.01295,0.0548 -0.02786,0.0785 -0.01491,0.0237 -0.03566,0.0438 -0.06038,0.057 -0.03477,0.0185 -0.07636,0.0223 -0.114842,0.014 -0.03848,-0.008 -0.07393,-0.0281 -0.103789,-0.0537 -0.05971,-0.0513 -0.09639,-0.12369 -0.131891,-0.19395 -0.09891,-0.19576 -0.202421,-0.3932 -0.354381,-0.55136 -0.07598,-0.0791 -0.163824,-0.14759 -0.262444,-0.19555 -0.09862,-0.048 -0.208305,-0.0749 -0.317898,-0.071 -0.03901,0.001 -0.07838,0.007 -0.116843,0 -0.05632,-0.01 -0.106546,-0.0452 -0.139581,-0.0919 -0.03303,-0.0466 -0.0497,-0.10364 -0.05324,-0.16069 -0.0071,-0.11409 0.03578,-0.22461 0.07598,-0.33162 0.02881,-0.0767 0.05687,-0.15486 0.06348,-0.2365 0.0033,-0.0408 0.0011,-0.0823 -0.0089,-0.12197 -0.01004,-0.0397 -0.02811,-0.0776 -0.05457,-0.10889 -0.03567,-0.0421 -0.08558,-0.0713 -0.11684,-0.11684 -0.03414,-0.0497 -0.04189,-0.11344 -0.03627,-0.17347 0.0056,-0.06 0.0234,-0.11815 0.03627,-0.17705 0.04326,-0.19792 0.03074,-0.40534 -0.01591,-0.60249 -0.04665,-0.19715 -0.126601,-0.385 -0.217769,-0.56592 -0.07554,-0.14991 -0.159088,-0.29596 -0.226308,-0.44978 -0.06722,-0.15382 -0.118205,-0.31718 -0.124214,-0.48494 -0.0042,-0.11686 0.01347,-0.23436 0,-0.35052 -0.02449,-0.21122 -0.148009,-0.39563 -0.260275,-0.57622 -0.05613,-0.0903 -0.110511,-0.18229 -0.149938,-0.28103 -0.03943,-0.0987 -0.06362,-0.20504 -0.05715,-0.31116 0.0048,-0.0795 0.02663,-0.15692 0.03626,-0.23596 0.0048,-0.0395 0.0066,-0.0796 0.0016,-0.11911 -0.005,-0.0395 -0.01685,-0.0785 -0.03785,-0.11229 -0.02921,-0.047 -0.07417,-0.0816 -0.11684,-0.11684 -0.417194,-0.34454 -0.695043,-0.85318 -0.759509,-1.39039 -0.06447,-0.53722 0.08515,-1.09716 0.408986,-1.53062 z"
       id="path36" />
    <rect
       style="fill:#008080;stroke-width:0.264583"
       id="rect36"
       width="17.228512"
       height="15.779387"
       x="51.524529"
       y="140.24333" />
    <rect
       style="fill:#00ffff;stroke-width:0.264583"
       id="rect37"
       width="13.525188"
       height="11.593018"
       x="53.456696"
       y="142.17549" />
    <path
       style="fill:#0000ff;stroke-width:0.264583"
       id="path42"
       d="m 39.448464,154.57359 c 0.159396,0.15484 -0.167185,-22.37935 -0.322027,-22.21996 -0.154842,0.1594 22.379348,-0.16718 22.219952,-0.32202 -0.159396,-0.15484 0.167185,22.37935 0.322027,22.21995 0.154842,-0.1594 -22.379348,0.16718 -22.219952,0.32203 z"
       transform="matrix(0.44527827,-0.51629196,0.45038364,0.01193094,-43.380919,172.15517)" />
    <path
       style="fill:#0000ff;stroke-width:0.264583"
       id="path42-3"
       d="m 39.448464,154.57359 c 0.159396,0.15484 -0.167185,-22.37935 -0.322027,-22.21996 -0.154842,0.1594 22.379348,-0.16718 22.219952,-0.32202 -0.159396,-0.15484 0.167185,22.37935 0.322027,22.21995 0.154842,-0.1594 -22.379348,0.16718 -22.219952,0.32203 z"
       transform="matrix(0.44672474,-0.5150409,0.4503484,0.01319424,-43.126651,183.28684)" />
    <path
       style="fill:#0000ff;stroke-width:0.264583"
       id="path42-3-4"
       d="m 39.448464,154.57359 c 0.159396,0.15484 -0.167185,-22.37935 -0.322027,-22.21996 -0.154842,0.1594 22.379348,-0.16718 22.219952,-0.32202 -0.159396,-0.15484 0.167185,22.37935 0.322027,22.21995 0.154842,-0.1594 -22.379348,0.16718 -22.219952,0.32203 z"
       transform="matrix(-0.44672474,-0.5150409,-0.4503484,0.01319424,163.49046,183.71554)" />
    <path
       style="fill:#0000ff;stroke-width:0.264583"
       id="path42-3-6"
       d="m 39.448464,154.57359 c 0.159396,0.15484 -0.167185,-22.37935 -0.322027,-22.21996 -0.154842,0.1594 22.379348,-0.16718 22.219952,-0.32202 -0.159396,-0.15484 0.167185,22.37935 0.322027,22.21995 0.154842,-0.1594 -22.379348,0.16718 -22.219952,0.32203 z"
       transform="matrix(-0.44672474,-0.5150409,-0.4503484,0.01319424,163.68459,171.94345)" />
    <path
       style="fill:#800080;stroke-width:0.264583"
       id="path43"
       d="m 53.778724,130.58247 c -0.278885,0.43507 -12.668055,-0.14072 -12.905386,-0.59977 -0.237331,-0.45906 6.455901,-10.9005 6.972117,-10.87651 0.516215,0.024 6.212154,11.04122 5.933269,11.47628 z"
       transform="rotate(-2.1463461,268.58323,-200.34044)" />
  </g>
</svg>
